solid OpenSCAD_Model
  facet normal 1 0 0
    outer loop
      vertex 23 0 30
      vertex 23 17.292 37
      vertex 23 0 37
    endloop
  endfacet
  facet normal 1 0 0
    outer loop
      vertex 23 17.292 37
      vertex 23 0 30
      vertex 23 17.292 13.6
    endloop
  endfacet
  facet normal 1 0 0
    outer loop
      vertex 23 17.292 13.6
      vertex 23 0 30
      vertex 23 0 13.6
    endloop
  endfacet
  facet normal -1 0 0
    outer loop
      vertex 33 0 30
      vertex 33 15.332 13.6
      vertex 33 0 13.6
    endloop
  endfacet
  facet normal -1 0 0
    outer loop
      vertex 33 15.332 13.6
      vertex 33 0 30
      vertex 33 15.332 37
    endloop
  endfacet
  facet normal -1 -0 0
    outer loop
      vertex 33 15.332 37
      vertex 33 0 30
      vertex 33 0 37
    endloop
  endfacet
  facet normal 0 0 1
    outer loop
      vertex 23 0 13.6
      vertex 33 15.332 13.6
      vertex 23 17.292 13.6
    endloop
  endfacet
  facet normal 0 0 1
    outer loop
      vertex 33 15.332 13.6
      vertex 23 0 13.6
      vertex 33 0 13.6
    endloop
  endfacet
  facet normal 0 -1 0
    outer loop
      vertex 0 0 30
      vertex 23 0 13.6
      vertex 23 0 30
    endloop
  endfacet
  facet normal 0 -1 0
    outer loop
      vertex 50 0 0
      vertex 23 0 13.6
      vertex 0 0 0
    endloop
  endfacet
  facet normal 0 -1 0
    outer loop
      vertex 0 0 0
      vertex 23 0 13.6
      vertex 0 0 30
    endloop
  endfacet
  facet normal 0 -1 0
    outer loop
      vertex 33 0 13.6
      vertex 50 0 30
      vertex 33 0 30
    endloop
  endfacet
  facet normal 0 -1 0
    outer loop
      vertex 33 0 13.6
      vertex 50 0 0
      vertex 50 0 30
    endloop
  endfacet
  facet normal 0 -1 0
    outer loop
      vertex 23 0 13.6
      vertex 50 0 0
      vertex 33 0 13.6
    endloop
  endfacet
  facet normal 0 1 -0
    outer loop
      vertex 33 0 30
      vertex 23 0 37
      vertex 33 0 37
    endloop
  endfacet
  facet normal 0 1 0
    outer loop
      vertex 23 0 37
      vertex 33 0 30
      vertex 23 0 30
    endloop
  endfacet
  facet normal -1 0 0
    outer loop
      vertex 0 -2.1 0
      vertex 0 -4.2 0
      vertex 0 -2.1 30
    endloop
  endfacet
  facet normal -1 0 0
    outer loop
      vertex 0 0 30
      vertex 0 21.8 0
      vertex 0 0 0
    endloop
  endfacet
  facet normal -1 0 0
    outer loop
      vertex 0 21.8 0
      vertex 0 0 30
      vertex 0 21.8 37
    endloop
  endfacet
  facet normal -1 0 0
    outer loop
      vertex 0 -4.2 37
      vertex 0 0 30
      vertex 0 -2.1 30
    endloop
  endfacet
  facet normal -1 0 0
    outer loop
      vertex 0 0 30
      vertex 0 -4.2 37
      vertex 0 21.8 37
    endloop
  endfacet
  facet normal -1 0 0
    outer loop
      vertex 0 -4.2 37
      vertex 0 -2.1 30
      vertex 0 -4.2 0
    endloop
  endfacet
  facet normal 0 -1 0
    outer loop
      vertex 0 -4.2 0
      vertex 50 -4.2 37
      vertex 0 -4.2 37
    endloop
  endfacet
  facet normal 0 -1 -0
    outer loop
      vertex 50 -4.2 37
      vertex 0 -4.2 0
      vertex 50 -4.2 0
    endloop
  endfacet
  facet normal 0 0 -1
    outer loop
      vertex 0 -4.2 0
      vertex 50 -2.1 0
      vertex 50 -4.2 0
    endloop
  endfacet
  facet normal -0 0 -1
    outer loop
      vertex 50 -2.1 0
      vertex 0 -4.2 0
      vertex 0 -2.1 0
    endloop
  endfacet
  facet normal 0 0 -1
    outer loop
      vertex 0 0 0
      vertex 50 12 0
      vertex 50 0 0
    endloop
  endfacet
  facet normal -0 0 -1
    outer loop
      vertex 50 12 0
      vertex 0 0 0
      vertex 0 21.8 0
    endloop
  endfacet
  facet normal 0 0 1
    outer loop
      vertex 0 -4.2 37
      vertex 23 17.292 37
      vertex 0 21.8 37
    endloop
  endfacet
  facet normal 0 0 1
    outer loop
      vertex 33 0 37
      vertex 50 12 37
      vertex 33 15.332 37
    endloop
  endfacet
  facet normal 0 0 1
    outer loop
      vertex 50 12 37
      vertex 33 0 37
      vertex 50 -4.2 37
    endloop
  endfacet
  facet normal -0 0 1
    outer loop
      vertex 23 0 37
      vertex 50 -4.2 37
      vertex 33 0 37
    endloop
  endfacet
  facet normal 0 0 1
    outer loop
      vertex 23 0 37
      vertex 0 -4.2 37
      vertex 50 -4.2 37
    endloop
  endfacet
  facet normal 0 0 1
    outer loop
      vertex 23 17.292 37
      vertex 0 -4.2 37
      vertex 23 0 37
    endloop
  endfacet
  facet normal 0.19234 0.981328 0
    outer loop
      vertex 50 12 37
      vertex 33 15.332 13.6
      vertex 33 15.332 37
    endloop
  endfacet
  facet normal 0.19234 0.981328 6.19324e-08
    outer loop
      vertex 33 15.332 13.6
      vertex 50 12 0
      vertex 23 17.292 13.6
    endloop
  endfacet
  facet normal 0.19234 0.981328 -0
    outer loop
      vertex 50 12 0
      vertex 33 15.332 13.6
      vertex 50 12 37
    endloop
  endfacet
  facet normal 0.19234 0.981328 -0
    outer loop
      vertex 23 17.292 13.6
      vertex 0 21.8 37
      vertex 23 17.292 37
    endloop
  endfacet
  facet normal 0.19234 0.981328 0
    outer loop
      vertex 23 17.292 13.6
      vertex 0 21.8 0
      vertex 0 21.8 37
    endloop
  endfacet
  facet normal 0.19234 0.981328 -4.95459e-08
    outer loop
      vertex 0 21.8 0
      vertex 23 17.292 13.6
      vertex 50 12 0
    endloop
  endfacet
  facet normal 1 0 0
    outer loop
      vertex 50 12 37
      vertex 50 0 30
      vertex 50 12 0
    endloop
  endfacet
  facet normal 1 -0 0
    outer loop
      vertex 50 -4.2 37
      vertex 50 0 30
      vertex 50 12 37
    endloop
  endfacet
  facet normal 1 0 0
    outer loop
      vertex 50 0 30
      vertex 50 -4.2 37
      vertex 50 -2.1 30
    endloop
  endfacet
  facet normal 1 0 0
    outer loop
      vertex 50 -4.2 0
      vertex 50 -2.1 30
      vertex 50 -4.2 37
    endloop
  endfacet
  facet normal 1 0 0
    outer loop
      vertex 50 -2.1 30
      vertex 50 -4.2 0
      vertex 50 -2.1 0
    endloop
  endfacet
  facet normal 1 0 0
    outer loop
      vertex 50 12 0
      vertex 50 0 30
      vertex 50 0 0
    endloop
  endfacet
  facet normal 0 0 -1
    outer loop
      vertex 50 -2.1 30
      vertex 33 0 30
      vertex 50 0 30
    endloop
  endfacet
  facet normal 0 0 -1
    outer loop
      vertex 50 -2.1 30
      vertex 23 0 30
      vertex 33 0 30
    endloop
  endfacet
  facet normal 0 0 -1
    outer loop
      vertex 0 -2.1 30
      vertex 23 0 30
      vertex 50 -2.1 30
    endloop
  endfacet
  facet normal -0 0 -1
    outer loop
      vertex 23 0 30
      vertex 0 -2.1 30
      vertex 0 0 30
    endloop
  endfacet
  facet normal 0 1 -0
    outer loop
      vertex 50 -2.1 0
      vertex 0 -2.1 30
      vertex 50 -2.1 30
    endloop
  endfacet
  facet normal 0 1 0
    outer loop
      vertex 0 -2.1 30
      vertex 50 -2.1 0
      vertex 0 -2.1 0
    endloop
  endfacet
endsolid OpenSCAD_Model
