solid OpenSCAD_Model
  facet normal -0.987689 0.156431 0
    outer loop
      vertex 17.0217 15.0056 0
      vertex 17.1 15.5 3
      vertex 17.1 15.5 0
    endloop
  endfacet
  facet normal -0.987689 0.156431 0
    outer loop
      vertex 17.1 15.5 3
      vertex 17.0217 15.0056 0
      vertex 17.0217 15.0056 3
    endloop
  endfacet
  facet normal -0.987689 -0.156432 0
    outer loop
      vertex 17.1 15.5 0
      vertex 17.0217 15.9944 3
      vertex 17.0217 15.9944 0
    endloop
  endfacet
  facet normal -0.987689 -0.156432 0
    outer loop
      vertex 17.0217 15.9944 3
      vertex 17.1 15.5 0
      vertex 17.1 15.5 3
    endloop
  endfacet
  facet normal 0.453992 -0.891006 0
    outer loop
      vertex 14.5595 16.7944 0
      vertex 15.0056 17.0217 3
      vertex 14.5595 16.7944 3
    endloop
  endfacet
  facet normal 0.453992 -0.891006 0
    outer loop
      vertex 15.0056 17.0217 3
      vertex 14.5595 16.7944 0
      vertex 15.0056 17.0217 0
    endloop
  endfacet
  facet normal 0.707107 0.707107 0
    outer loop
      vertex 14.5595 14.2056 3
      vertex 14.2056 14.5595 0
      vertex 14.2056 14.5595 3
    endloop
  endfacet
  facet normal 0.707107 0.707107 0
    outer loop
      vertex 14.2056 14.5595 0
      vertex 14.5595 14.2056 3
      vertex 14.5595 14.2056 0
    endloop
  endfacet
  facet normal 0.987689 0.156433 0
    outer loop
      vertex 13.9783 15.0056 3
      vertex 13.9 15.5 0
      vertex 13.9 15.5 3
    endloop
  endfacet
  facet normal 0.987689 0.156433 0
    outer loop
      vertex 13.9 15.5 0
      vertex 13.9783 15.0056 3
      vertex 13.9783 15.0056 0
    endloop
  endfacet
  facet normal 0.891007 0.45399 0
    outer loop
      vertex 14.2056 14.5595 3
      vertex 13.9783 15.0056 0
      vertex 13.9783 15.0056 3
    endloop
  endfacet
  facet normal 0.891007 0.45399 0
    outer loop
      vertex 13.9783 15.0056 0
      vertex 14.2056 14.5595 3
      vertex 14.2056 14.5595 0
    endloop
  endfacet
  facet normal -0.707108 0.707106 0
    outer loop
      vertex 16.4405 14.2056 0
      vertex 16.7944 14.5595 3
      vertex 16.7944 14.5595 0
    endloop
  endfacet
  facet normal -0.707108 0.707106 0
    outer loop
      vertex 16.7944 14.5595 3
      vertex 16.4405 14.2056 0
      vertex 16.4405 14.2056 3
    endloop
  endfacet
  facet normal -0.45399 0.891007 0
    outer loop
      vertex 16.4405 14.2056 0
      vertex 15.9944 13.9783 3
      vertex 16.4405 14.2056 3
    endloop
  endfacet
  facet normal -0.45399 0.891007 0
    outer loop
      vertex 15.9944 13.9783 3
      vertex 16.4405 14.2056 0
      vertex 15.9944 13.9783 0
    endloop
  endfacet
  facet normal 0.987688 -0.156434 0
    outer loop
      vertex 13.9 15.5 3
      vertex 13.9783 15.9944 0
      vertex 13.9783 15.9944 3
    endloop
  endfacet
  facet normal 0.987688 -0.156434 0
    outer loop
      vertex 13.9783 15.9944 0
      vertex 13.9 15.5 3
      vertex 13.9 15.5 0
    endloop
  endfacet
  facet normal 0.891007 -0.45399 0
    outer loop
      vertex 13.9783 15.9944 3
      vertex 14.2056 16.4405 0
      vertex 14.2056 16.4405 3
    endloop
  endfacet
  facet normal 0.891007 -0.45399 0
    outer loop
      vertex 14.2056 16.4405 0
      vertex 13.9783 15.9944 3
      vertex 13.9783 15.9944 0
    endloop
  endfacet
  facet normal 0.45399 0.891007 -0
    outer loop
      vertex 15.0056 13.9783 0
      vertex 14.5595 14.2056 3
      vertex 15.0056 13.9783 3
    endloop
  endfacet
  facet normal 0.45399 0.891007 0
    outer loop
      vertex 14.5595 14.2056 3
      vertex 15.0056 13.9783 0
      vertex 14.5595 14.2056 0
    endloop
  endfacet
  facet normal 0.156433 0.987689 -0
    outer loop
      vertex 15.5 13.9 0
      vertex 15.0056 13.9783 3
      vertex 15.5 13.9 3
    endloop
  endfacet
  facet normal 0.156433 0.987689 0
    outer loop
      vertex 15.0056 13.9783 3
      vertex 15.5 13.9 0
      vertex 15.0056 13.9783 0
    endloop
  endfacet
  facet normal -0.891006 0.453992 0
    outer loop
      vertex 16.7944 14.5595 0
      vertex 17.0217 15.0056 3
      vertex 17.0217 15.0056 0
    endloop
  endfacet
  facet normal -0.891006 0.453992 0
    outer loop
      vertex 17.0217 15.0056 3
      vertex 16.7944 14.5595 0
      vertex 16.7944 14.5595 3
    endloop
  endfacet
  facet normal -0.156434 0.987688 0
    outer loop
      vertex 15.9944 13.9783 0
      vertex 15.5 13.9 3
      vertex 15.9944 13.9783 3
    endloop
  endfacet
  facet normal -0.156434 0.987688 0
    outer loop
      vertex 15.5 13.9 3
      vertex 15.9944 13.9783 0
      vertex 15.5 13.9 0
    endloop
  endfacet
  facet normal 0.707106 -0.707108 0
    outer loop
      vertex 14.2056 16.4405 0
      vertex 14.5595 16.7944 3
      vertex 14.2056 16.4405 3
    endloop
  endfacet
  facet normal 0.707106 -0.707108 0
    outer loop
      vertex 14.5595 16.7944 3
      vertex 14.2056 16.4405 0
      vertex 14.5595 16.7944 0
    endloop
  endfacet
  facet normal -0.707107 -0.707107 0
    outer loop
      vertex 16.7944 16.4405 0
      vertex 16.4405 16.7944 3
      vertex 16.4405 16.7944 0
    endloop
  endfacet
  facet normal -0.707107 -0.707107 0
    outer loop
      vertex 16.4405 16.7944 3
      vertex 16.7944 16.4405 0
      vertex 16.7944 16.4405 3
    endloop
  endfacet
  facet normal -0.453992 -0.891006 0
    outer loop
      vertex 15.9944 17.0217 0
      vertex 16.4405 16.7944 3
      vertex 15.9944 17.0217 3
    endloop
  endfacet
  facet normal -0.453992 -0.891006 -0
    outer loop
      vertex 16.4405 16.7944 3
      vertex 15.9944 17.0217 0
      vertex 16.4405 16.7944 0
    endloop
  endfacet
  facet normal -0.891006 -0.453992 0
    outer loop
      vertex 17.0217 15.9944 0
      vertex 16.7944 16.4405 3
      vertex 16.7944 16.4405 0
    endloop
  endfacet
  facet normal -0.891006 -0.453992 0
    outer loop
      vertex 16.7944 16.4405 3
      vertex 17.0217 15.9944 0
      vertex 17.0217 15.9944 3
    endloop
  endfacet
  facet normal 0.156431 -0.987689 0
    outer loop
      vertex 15.0056 17.0217 0
      vertex 15.5 17.1 3
      vertex 15.0056 17.0217 3
    endloop
  endfacet
  facet normal 0.156431 -0.987689 0
    outer loop
      vertex 15.5 17.1 3
      vertex 15.0056 17.0217 0
      vertex 15.5 17.1 0
    endloop
  endfacet
  facet normal -0.156432 -0.987689 0
    outer loop
      vertex 15.5 17.1 0
      vertex 15.9944 17.0217 3
      vertex 15.5 17.1 3
    endloop
  endfacet
  facet normal -0.156432 -0.987689 -0
    outer loop
      vertex 15.9944 17.0217 3
      vertex 15.5 17.1 0
      vertex 15.9944 17.0217 0
    endloop
  endfacet
  facet normal -0.987689 0.156432 0
    outer loop
      vertex 17.0217 -15.9944 0
      vertex 17.1 -15.5 3
      vertex 17.1 -15.5 0
    endloop
  endfacet
  facet normal -0.987689 0.156432 0
    outer loop
      vertex 17.1 -15.5 3
      vertex 17.0217 -15.9944 0
      vertex 17.0217 -15.9944 3
    endloop
  endfacet
  facet normal -0.987689 -0.156431 0
    outer loop
      vertex 17.1 -15.5 0
      vertex 17.0217 -15.0056 3
      vertex 17.0217 -15.0056 0
    endloop
  endfacet
  facet normal -0.987689 -0.156431 0
    outer loop
      vertex 17.0217 -15.0056 3
      vertex 17.1 -15.5 0
      vertex 17.1 -15.5 3
    endloop
  endfacet
  facet normal 0.987689 -0.156433 0
    outer loop
      vertex 13.9 -15.5 3
      vertex 13.9783 -15.0056 0
      vertex 13.9783 -15.0056 3
    endloop
  endfacet
  facet normal 0.987689 -0.156433 0
    outer loop
      vertex 13.9783 -15.0056 0
      vertex 13.9 -15.5 3
      vertex 13.9 -15.5 0
    endloop
  endfacet
  facet normal 0.156431 0.987689 -0
    outer loop
      vertex 15.5 -17.1 0
      vertex 15.0056 -17.0217 3
      vertex 15.5 -17.1 3
    endloop
  endfacet
  facet normal 0.156431 0.987689 0
    outer loop
      vertex 15.0056 -17.0217 3
      vertex 15.5 -17.1 0
      vertex 15.0056 -17.0217 0
    endloop
  endfacet
  facet normal -0.891006 0.453992 0
    outer loop
      vertex 16.7944 -16.4405 0
      vertex 17.0217 -15.9944 3
      vertex 17.0217 -15.9944 0
    endloop
  endfacet
  facet normal -0.891006 0.453992 0
    outer loop
      vertex 17.0217 -15.9944 3
      vertex 16.7944 -16.4405 0
      vertex 16.7944 -16.4405 3
    endloop
  endfacet
  facet normal 0.891007 -0.45399 0
    outer loop
      vertex 13.9783 -15.0056 3
      vertex 14.2056 -14.5595 0
      vertex 14.2056 -14.5595 3
    endloop
  endfacet
  facet normal 0.891007 -0.45399 0
    outer loop
      vertex 14.2056 -14.5595 0
      vertex 13.9783 -15.0056 3
      vertex 13.9783 -15.0056 0
    endloop
  endfacet
  facet normal 0.45399 -0.891007 0
    outer loop
      vertex 14.5595 -14.2056 0
      vertex 15.0056 -13.9783 3
      vertex 14.5595 -14.2056 3
    endloop
  endfacet
  facet normal 0.45399 -0.891007 0
    outer loop
      vertex 15.0056 -13.9783 3
      vertex 14.5595 -14.2056 0
      vertex 15.0056 -13.9783 0
    endloop
  endfacet
  facet normal -0.707108 -0.707106 0
    outer loop
      vertex 16.7944 -14.5595 0
      vertex 16.4405 -14.2056 3
      vertex 16.4405 -14.2056 0
    endloop
  endfacet
  facet normal -0.707108 -0.707106 0
    outer loop
      vertex 16.4405 -14.2056 3
      vertex 16.7944 -14.5595 0
      vertex 16.7944 -14.5595 3
    endloop
  endfacet
  facet normal 0.987688 0.156434 0
    outer loop
      vertex 13.9783 -15.9944 3
      vertex 13.9 -15.5 0
      vertex 13.9 -15.5 3
    endloop
  endfacet
  facet normal 0.987688 0.156434 0
    outer loop
      vertex 13.9 -15.5 0
      vertex 13.9783 -15.9944 3
      vertex 13.9783 -15.9944 0
    endloop
  endfacet
  facet normal 0.891007 0.45399 0
    outer loop
      vertex 14.2056 -16.4405 3
      vertex 13.9783 -15.9944 0
      vertex 13.9783 -15.9944 3
    endloop
  endfacet
  facet normal 0.891007 0.45399 0
    outer loop
      vertex 13.9783 -15.9944 0
      vertex 14.2056 -16.4405 3
      vertex 14.2056 -16.4405 0
    endloop
  endfacet
  facet normal 0.453992 0.891006 -0
    outer loop
      vertex 15.0056 -17.0217 0
      vertex 14.5595 -16.7944 3
      vertex 15.0056 -17.0217 3
    endloop
  endfacet
  facet normal 0.453992 0.891006 0
    outer loop
      vertex 14.5595 -16.7944 3
      vertex 15.0056 -17.0217 0
      vertex 14.5595 -16.7944 0
    endloop
  endfacet
  facet normal 0.707106 0.707108 -0
    outer loop
      vertex 14.5595 -16.7944 0
      vertex 14.2056 -16.4405 3
      vertex 14.5595 -16.7944 3
    endloop
  endfacet
  facet normal 0.707106 0.707108 0
    outer loop
      vertex 14.2056 -16.4405 3
      vertex 14.5595 -16.7944 0
      vertex 14.2056 -16.4405 0
    endloop
  endfacet
  facet normal -0.453992 0.891006 0
    outer loop
      vertex 16.4405 -16.7944 0
      vertex 15.9944 -17.0217 3
      vertex 16.4405 -16.7944 3
    endloop
  endfacet
  facet normal -0.453992 0.891006 0
    outer loop
      vertex 15.9944 -17.0217 3
      vertex 16.4405 -16.7944 0
      vertex 15.9944 -17.0217 0
    endloop
  endfacet
  facet normal -0.707107 0.707107 0
    outer loop
      vertex 16.4405 -16.7944 0
      vertex 16.7944 -16.4405 3
      vertex 16.7944 -16.4405 0
    endloop
  endfacet
  facet normal -0.707107 0.707107 0
    outer loop
      vertex 16.7944 -16.4405 3
      vertex 16.4405 -16.7944 0
      vertex 16.4405 -16.7944 3
    endloop
  endfacet
  facet normal 0.707107 -0.707107 0
    outer loop
      vertex 14.2056 -14.5595 3
      vertex 14.5595 -14.2056 0
      vertex 14.5595 -14.2056 3
    endloop
  endfacet
  facet normal 0.707107 -0.707107 0
    outer loop
      vertex 14.5595 -14.2056 0
      vertex 14.2056 -14.5595 3
      vertex 14.2056 -14.5595 0
    endloop
  endfacet
  facet normal -0.45399 -0.891007 0
    outer loop
      vertex 15.9944 -13.9783 0
      vertex 16.4405 -14.2056 3
      vertex 15.9944 -13.9783 3
    endloop
  endfacet
  facet normal -0.45399 -0.891007 -0
    outer loop
      vertex 16.4405 -14.2056 3
      vertex 15.9944 -13.9783 0
      vertex 16.4405 -14.2056 0
    endloop
  endfacet
  facet normal -0.891006 -0.453992 0
    outer loop
      vertex 17.0217 -15.0056 0
      vertex 16.7944 -14.5595 3
      vertex 16.7944 -14.5595 0
    endloop
  endfacet
  facet normal -0.891006 -0.453992 0
    outer loop
      vertex 16.7944 -14.5595 3
      vertex 17.0217 -15.0056 0
      vertex 17.0217 -15.0056 3
    endloop
  endfacet
  facet normal -0.156432 0.987689 0
    outer loop
      vertex 15.9944 -17.0217 0
      vertex 15.5 -17.1 3
      vertex 15.9944 -17.0217 3
    endloop
  endfacet
  facet normal -0.156432 0.987689 0
    outer loop
      vertex 15.5 -17.1 3
      vertex 15.9944 -17.0217 0
      vertex 15.5 -17.1 0
    endloop
  endfacet
  facet normal 0.156433 -0.987689 0
    outer loop
      vertex 15.0056 -13.9783 0
      vertex 15.5 -13.9 3
      vertex 15.0056 -13.9783 3
    endloop
  endfacet
  facet normal 0.156433 -0.987689 0
    outer loop
      vertex 15.5 -13.9 3
      vertex 15.0056 -13.9783 0
      vertex 15.5 -13.9 0
    endloop
  endfacet
  facet normal -0.156434 -0.987688 0
    outer loop
      vertex 15.5 -13.9 0
      vertex 15.9944 -13.9783 3
      vertex 15.5 -13.9 3
    endloop
  endfacet
  facet normal -0.156434 -0.987688 -0
    outer loop
      vertex 15.9944 -13.9783 3
      vertex 15.5 -13.9 0
      vertex 15.9944 -13.9783 0
    endloop
  endfacet
  facet normal -0.987689 0.156433 0
    outer loop
      vertex -13.9783 15.0056 0
      vertex -13.9 15.5 3
      vertex -13.9 15.5 0
    endloop
  endfacet
  facet normal -0.987689 0.156433 0
    outer loop
      vertex -13.9 15.5 3
      vertex -13.9783 15.0056 0
      vertex -13.9783 15.0056 3
    endloop
  endfacet
  facet normal -0.987688 -0.156434 0
    outer loop
      vertex -13.9 15.5 0
      vertex -13.9783 15.9944 3
      vertex -13.9783 15.9944 0
    endloop
  endfacet
  facet normal -0.987688 -0.156434 0
    outer loop
      vertex -13.9783 15.9944 3
      vertex -13.9 15.5 0
      vertex -13.9 15.5 3
    endloop
  endfacet
  facet normal 0.987689 -0.156432 0
    outer loop
      vertex -17.1 15.5 3
      vertex -17.0217 15.9944 0
      vertex -17.0217 15.9944 3
    endloop
  endfacet
  facet normal 0.987689 -0.156432 0
    outer loop
      vertex -17.0217 15.9944 0
      vertex -17.1 15.5 3
      vertex -17.1 15.5 0
    endloop
  endfacet
  facet normal 0.987689 0.156431 0
    outer loop
      vertex -17.0217 15.0056 3
      vertex -17.1 15.5 0
      vertex -17.1 15.5 3
    endloop
  endfacet
  facet normal 0.987689 0.156431 0
    outer loop
      vertex -17.1 15.5 0
      vertex -17.0217 15.0056 3
      vertex -17.0217 15.0056 0
    endloop
  endfacet
  facet normal 0.707108 0.707106 0
    outer loop
      vertex -16.4405 14.2056 3
      vertex -16.7944 14.5595 0
      vertex -16.7944 14.5595 3
    endloop
  endfacet
  facet normal 0.707108 0.707106 0
    outer loop
      vertex -16.7944 14.5595 0
      vertex -16.4405 14.2056 3
      vertex -16.4405 14.2056 0
    endloop
  endfacet
  facet normal -0.707107 0.707107 0
    outer loop
      vertex -14.5595 14.2056 0
      vertex -14.2056 14.5595 3
      vertex -14.2056 14.5595 0
    endloop
  endfacet
  facet normal -0.707107 0.707107 0
    outer loop
      vertex -14.2056 14.5595 3
      vertex -14.5595 14.2056 0
      vertex -14.5595 14.2056 3
    endloop
  endfacet
  facet normal 0.891006 0.453992 0
    outer loop
      vertex -16.7944 14.5595 3
      vertex -17.0217 15.0056 0
      vertex -17.0217 15.0056 3
    endloop
  endfacet
  facet normal 0.891006 0.453992 0
    outer loop
      vertex -17.0217 15.0056 0
      vertex -16.7944 14.5595 3
      vertex -16.7944 14.5595 0
    endloop
  endfacet
  facet normal 0.45399 0.891007 -0
    outer loop
      vertex -15.9944 13.9783 0
      vertex -16.4405 14.2056 3
      vertex -15.9944 13.9783 3
    endloop
  endfacet
  facet normal 0.45399 0.891007 0
    outer loop
      vertex -16.4405 14.2056 3
      vertex -15.9944 13.9783 0
      vertex -16.4405 14.2056 0
    endloop
  endfacet
  facet normal 0.156434 0.987688 -0
    outer loop
      vertex -15.5 13.9 0
      vertex -15.9944 13.9783 3
      vertex -15.5 13.9 3
    endloop
  endfacet
  facet normal 0.156434 0.987688 0
    outer loop
      vertex -15.9944 13.9783 3
      vertex -15.5 13.9 0
      vertex -15.9944 13.9783 0
    endloop
  endfacet
  facet normal -0.45399 0.891007 0
    outer loop
      vertex -14.5595 14.2056 0
      vertex -15.0056 13.9783 3
      vertex -14.5595 14.2056 3
    endloop
  endfacet
  facet normal -0.45399 0.891007 0
    outer loop
      vertex -15.0056 13.9783 3
      vertex -14.5595 14.2056 0
      vertex -15.0056 13.9783 0
    endloop
  endfacet
  facet normal -0.891007 0.45399 0
    outer loop
      vertex -14.2056 14.5595 0
      vertex -13.9783 15.0056 3
      vertex -13.9783 15.0056 0
    endloop
  endfacet
  facet normal -0.891007 0.45399 0
    outer loop
      vertex -13.9783 15.0056 3
      vertex -14.2056 14.5595 0
      vertex -14.2056 14.5595 3
    endloop
  endfacet
  facet normal 0.891006 -0.453992 0
    outer loop
      vertex -17.0217 15.9944 3
      vertex -16.7944 16.4405 0
      vertex -16.7944 16.4405 3
    endloop
  endfacet
  facet normal 0.891006 -0.453992 0
    outer loop
      vertex -16.7944 16.4405 0
      vertex -17.0217 15.9944 3
      vertex -17.0217 15.9944 0
    endloop
  endfacet
  facet normal 0.707107 -0.707107 0
    outer loop
      vertex -16.7944 16.4405 3
      vertex -16.4405 16.7944 0
      vertex -16.4405 16.7944 3
    endloop
  endfacet
  facet normal 0.707107 -0.707107 0
    outer loop
      vertex -16.4405 16.7944 0
      vertex -16.7944 16.4405 3
      vertex -16.7944 16.4405 0
    endloop
  endfacet
  facet normal 0.453992 -0.891006 0
    outer loop
      vertex -16.4405 16.7944 0
      vertex -15.9944 17.0217 3
      vertex -16.4405 16.7944 3
    endloop
  endfacet
  facet normal 0.453992 -0.891006 0
    outer loop
      vertex -15.9944 17.0217 3
      vertex -16.4405 16.7944 0
      vertex -15.9944 17.0217 0
    endloop
  endfacet
  facet normal -0.453992 -0.891006 0
    outer loop
      vertex -15.0056 17.0217 0
      vertex -14.5595 16.7944 3
      vertex -15.0056 17.0217 3
    endloop
  endfacet
  facet normal -0.453992 -0.891006 -0
    outer loop
      vertex -14.5595 16.7944 3
      vertex -15.0056 17.0217 0
      vertex -14.5595 16.7944 0
    endloop
  endfacet
  facet normal 0.156432 -0.987689 0
    outer loop
      vertex -15.9944 17.0217 0
      vertex -15.5 17.1 3
      vertex -15.9944 17.0217 3
    endloop
  endfacet
  facet normal 0.156432 -0.987689 0
    outer loop
      vertex -15.5 17.1 3
      vertex -15.9944 17.0217 0
      vertex -15.5 17.1 0
    endloop
  endfacet
  facet normal -0.156433 0.987689 0
    outer loop
      vertex -15.0056 13.9783 0
      vertex -15.5 13.9 3
      vertex -15.0056 13.9783 3
    endloop
  endfacet
  facet normal -0.156433 0.987689 0
    outer loop
      vertex -15.5 13.9 3
      vertex -15.0056 13.9783 0
      vertex -15.5 13.9 0
    endloop
  endfacet
  facet normal -0.707106 -0.707108 0
    outer loop
      vertex -14.5595 16.7944 0
      vertex -14.2056 16.4405 3
      vertex -14.5595 16.7944 3
    endloop
  endfacet
  facet normal -0.707106 -0.707108 -0
    outer loop
      vertex -14.2056 16.4405 3
      vertex -14.5595 16.7944 0
      vertex -14.2056 16.4405 0
    endloop
  endfacet
  facet normal -0.891007 -0.45399 0
    outer loop
      vertex -13.9783 15.9944 0
      vertex -14.2056 16.4405 3
      vertex -14.2056 16.4405 0
    endloop
  endfacet
  facet normal -0.891007 -0.45399 0
    outer loop
      vertex -14.2056 16.4405 3
      vertex -13.9783 15.9944 0
      vertex -13.9783 15.9944 3
    endloop
  endfacet
  facet normal -0.156431 -0.987689 0
    outer loop
      vertex -15.5 17.1 0
      vertex -15.0056 17.0217 3
      vertex -15.5 17.1 3
    endloop
  endfacet
  facet normal -0.156431 -0.987689 -0
    outer loop
      vertex -15.0056 17.0217 3
      vertex -15.5 17.1 0
      vertex -15.0056 17.0217 0
    endloop
  endfacet
  facet normal -0.987688 0.156434 0
    outer loop
      vertex -13.9783 -15.9944 0
      vertex -13.9 -15.5 3
      vertex -13.9 -15.5 0
    endloop
  endfacet
  facet normal -0.987688 0.156434 0
    outer loop
      vertex -13.9 -15.5 3
      vertex -13.9783 -15.9944 0
      vertex -13.9783 -15.9944 3
    endloop
  endfacet
  facet normal -0.987689 -0.156433 0
    outer loop
      vertex -13.9 -15.5 0
      vertex -13.9783 -15.0056 3
      vertex -13.9783 -15.0056 0
    endloop
  endfacet
  facet normal -0.987689 -0.156433 0
    outer loop
      vertex -13.9783 -15.0056 3
      vertex -13.9 -15.5 0
      vertex -13.9 -15.5 3
    endloop
  endfacet
  facet normal 0.987689 -0.156431 0
    outer loop
      vertex -17.1 -15.5 3
      vertex -17.0217 -15.0056 0
      vertex -17.0217 -15.0056 3
    endloop
  endfacet
  facet normal 0.987689 -0.156431 0
    outer loop
      vertex -17.0217 -15.0056 0
      vertex -17.1 -15.5 3
      vertex -17.1 -15.5 0
    endloop
  endfacet
  facet normal 0.707108 -0.707106 0
    outer loop
      vertex -16.7944 -14.5595 3
      vertex -16.4405 -14.2056 0
      vertex -16.4405 -14.2056 3
    endloop
  endfacet
  facet normal 0.707108 -0.707106 0
    outer loop
      vertex -16.4405 -14.2056 0
      vertex -16.7944 -14.5595 3
      vertex -16.7944 -14.5595 0
    endloop
  endfacet
  facet normal 0.156432 0.987689 -0
    outer loop
      vertex -15.5 -17.1 0
      vertex -15.9944 -17.0217 3
      vertex -15.5 -17.1 3
    endloop
  endfacet
  facet normal 0.156432 0.987689 0
    outer loop
      vertex -15.9944 -17.0217 3
      vertex -15.5 -17.1 0
      vertex -15.9944 -17.0217 0
    endloop
  endfacet
  facet normal -0.891007 0.45399 0
    outer loop
      vertex -14.2056 -16.4405 0
      vertex -13.9783 -15.9944 3
      vertex -13.9783 -15.9944 0
    endloop
  endfacet
  facet normal -0.891007 0.45399 0
    outer loop
      vertex -13.9783 -15.9944 3
      vertex -14.2056 -16.4405 0
      vertex -14.2056 -16.4405 3
    endloop
  endfacet
  facet normal 0.891006 -0.453992 0
    outer loop
      vertex -17.0217 -15.0056 3
      vertex -16.7944 -14.5595 0
      vertex -16.7944 -14.5595 3
    endloop
  endfacet
  facet normal 0.891006 -0.453992 0
    outer loop
      vertex -16.7944 -14.5595 0
      vertex -17.0217 -15.0056 3
      vertex -17.0217 -15.0056 0
    endloop
  endfacet
  facet normal 0.45399 -0.891007 0
    outer loop
      vertex -16.4405 -14.2056 0
      vertex -15.9944 -13.9783 3
      vertex -16.4405 -14.2056 3
    endloop
  endfacet
  facet normal 0.45399 -0.891007 0
    outer loop
      vertex -15.9944 -13.9783 3
      vertex -16.4405 -14.2056 0
      vertex -15.9944 -13.9783 0
    endloop
  endfacet
  facet normal -0.707107 -0.707107 0
    outer loop
      vertex -14.2056 -14.5595 0
      vertex -14.5595 -14.2056 3
      vertex -14.5595 -14.2056 0
    endloop
  endfacet
  facet normal -0.707107 -0.707107 0
    outer loop
      vertex -14.5595 -14.2056 3
      vertex -14.2056 -14.5595 0
      vertex -14.2056 -14.5595 3
    endloop
  endfacet
  facet normal 0.987689 0.156432 0
    outer loop
      vertex -17.0217 -15.9944 3
      vertex -17.1 -15.5 0
      vertex -17.1 -15.5 3
    endloop
  endfacet
  facet normal 0.987689 0.156432 0
    outer loop
      vertex -17.1 -15.5 0
      vertex -17.0217 -15.9944 3
      vertex -17.0217 -15.9944 0
    endloop
  endfacet
  facet normal 0.891006 0.453992 0
    outer loop
      vertex -16.7944 -16.4405 3
      vertex -17.0217 -15.9944 0
      vertex -17.0217 -15.9944 3
    endloop
  endfacet
  facet normal 0.891006 0.453992 0
    outer loop
      vertex -17.0217 -15.9944 0
      vertex -16.7944 -16.4405 3
      vertex -16.7944 -16.4405 0
    endloop
  endfacet
  facet normal 0.453992 0.891006 -0
    outer loop
      vertex -15.9944 -17.0217 0
      vertex -16.4405 -16.7944 3
      vertex -15.9944 -17.0217 3
    endloop
  endfacet
  facet normal 0.453992 0.891006 0
    outer loop
      vertex -16.4405 -16.7944 3
      vertex -15.9944 -17.0217 0
      vertex -16.4405 -16.7944 0
    endloop
  endfacet
  facet normal 0.707107 0.707107 0
    outer loop
      vertex -16.4405 -16.7944 3
      vertex -16.7944 -16.4405 0
      vertex -16.7944 -16.4405 3
    endloop
  endfacet
  facet normal 0.707107 0.707107 0
    outer loop
      vertex -16.7944 -16.4405 0
      vertex -16.4405 -16.7944 3
      vertex -16.4405 -16.7944 0
    endloop
  endfacet
  facet normal -0.453992 0.891006 0
    outer loop
      vertex -14.5595 -16.7944 0
      vertex -15.0056 -17.0217 3
      vertex -14.5595 -16.7944 3
    endloop
  endfacet
  facet normal -0.453992 0.891006 0
    outer loop
      vertex -15.0056 -17.0217 3
      vertex -14.5595 -16.7944 0
      vertex -15.0056 -17.0217 0
    endloop
  endfacet
  facet normal -0.707106 0.707108 0
    outer loop
      vertex -14.2056 -16.4405 0
      vertex -14.5595 -16.7944 3
      vertex -14.2056 -16.4405 3
    endloop
  endfacet
  facet normal -0.707106 0.707108 0
    outer loop
      vertex -14.5595 -16.7944 3
      vertex -14.2056 -16.4405 0
      vertex -14.5595 -16.7944 0
    endloop
  endfacet
  facet normal -0.45399 -0.891007 0
    outer loop
      vertex -15.0056 -13.9783 0
      vertex -14.5595 -14.2056 3
      vertex -15.0056 -13.9783 3
    endloop
  endfacet
  facet normal -0.45399 -0.891007 -0
    outer loop
      vertex -14.5595 -14.2056 3
      vertex -15.0056 -13.9783 0
      vertex -14.5595 -14.2056 0
    endloop
  endfacet
  facet normal -0.891007 -0.45399 0
    outer loop
      vertex -13.9783 -15.0056 0
      vertex -14.2056 -14.5595 3
      vertex -14.2056 -14.5595 0
    endloop
  endfacet
  facet normal -0.891007 -0.45399 0
    outer loop
      vertex -14.2056 -14.5595 3
      vertex -13.9783 -15.0056 0
      vertex -13.9783 -15.0056 3
    endloop
  endfacet
  facet normal -0.156431 0.987689 0
    outer loop
      vertex -15.0056 -17.0217 0
      vertex -15.5 -17.1 3
      vertex -15.0056 -17.0217 3
    endloop
  endfacet
  facet normal -0.156431 0.987689 0
    outer loop
      vertex -15.5 -17.1 3
      vertex -15.0056 -17.0217 0
      vertex -15.5 -17.1 0
    endloop
  endfacet
  facet normal 0.156434 -0.987688 0
    outer loop
      vertex -15.9944 -13.9783 0
      vertex -15.5 -13.9 3
      vertex -15.9944 -13.9783 3
    endloop
  endfacet
  facet normal 0.156434 -0.987688 0
    outer loop
      vertex -15.5 -13.9 3
      vertex -15.9944 -13.9783 0
      vertex -15.5 -13.9 0
    endloop
  endfacet
  facet normal -0.156433 -0.987689 0
    outer loop
      vertex -15.5 -13.9 0
      vertex -15.0056 -13.9783 3
      vertex -15.5 -13.9 3
    endloop
  endfacet
  facet normal -0.156433 -0.987689 -0
    outer loop
      vertex -15.0056 -13.9783 3
      vertex -15.5 -13.9 0
      vertex -15.0056 -13.9783 0
    endloop
  endfacet
  facet normal -0.891007 0.45399 0
    outer loop
      vertex 2.83156 -2.05725 0
      vertex 3.3287 -1.08156 1
      vertex 3.3287 -1.08156 0
    endloop
  endfacet
  facet normal -0.891007 0.45399 0
    outer loop
      vertex 3.3287 -1.08156 1
      vertex 2.83156 -2.05725 0
      vertex 2.83156 -2.05725 1
    endloop
  endfacet
  facet normal -0.987688 0.156435 0
    outer loop
      vertex 3.3287 -1.08156 0
      vertex 3.5 0 1
      vertex 3.5 0 0
    endloop
  endfacet
  facet normal -0.987688 0.156435 0
    outer loop
      vertex 3.5 0 1
      vertex 3.3287 -1.08156 0
      vertex 3.3287 -1.08156 1
    endloop
  endfacet
  facet normal 0.987688 -0.156435 0
    outer loop
      vertex -3.5 0 1
      vertex -3.3287 1.08156 0
      vertex -3.3287 1.08156 1
    endloop
  endfacet
  facet normal 0.987688 -0.156435 0
    outer loop
      vertex -3.3287 1.08156 0
      vertex -3.5 0 1
      vertex -3.5 0 0
    endloop
  endfacet
  facet normal -0.156435 0.987688 0
    outer loop
      vertex 1.08156 -3.3287 0
      vertex 0 -3.5 1
      vertex 1.08156 -3.3287 1
    endloop
  endfacet
  facet normal -0.156435 0.987688 0
    outer loop
      vertex 0 -3.5 1
      vertex 1.08156 -3.3287 0
      vertex 0 -3.5 0
    endloop
  endfacet
  facet normal -0.707107 0.707107 0
    outer loop
      vertex 2.05725 -2.83156 0
      vertex 2.83156 -2.05725 1
      vertex 2.83156 -2.05725 0
    endloop
  endfacet
  facet normal -0.707107 0.707107 0
    outer loop
      vertex 2.83156 -2.05725 1
      vertex 2.05725 -2.83156 0
      vertex 2.05725 -2.83156 1
    endloop
  endfacet
  facet normal 0.987688 0.156435 0
    outer loop
      vertex -3.3287 -1.08156 1
      vertex -3.5 0 0
      vertex -3.5 0 1
    endloop
  endfacet
  facet normal 0.987688 0.156435 0
    outer loop
      vertex -3.5 0 0
      vertex -3.3287 -1.08156 1
      vertex -3.3287 -1.08156 0
    endloop
  endfacet
  facet normal -0.45399 0.891007 0
    outer loop
      vertex 2.05725 -2.83156 0
      vertex 1.08156 -3.3287 1
      vertex 2.05725 -2.83156 1
    endloop
  endfacet
  facet normal -0.45399 0.891007 0
    outer loop
      vertex 1.08156 -3.3287 1
      vertex 2.05725 -2.83156 0
      vertex 1.08156 -3.3287 0
    endloop
  endfacet
  facet normal 0.45399 0.891007 -0
    outer loop
      vertex -1.08156 -3.3287 0
      vertex -2.05725 -2.83156 1
      vertex -1.08156 -3.3287 1
    endloop
  endfacet
  facet normal 0.45399 0.891007 0
    outer loop
      vertex -2.05725 -2.83156 1
      vertex -1.08156 -3.3287 0
      vertex -2.05725 -2.83156 0
    endloop
  endfacet
  facet normal 0.891007 -0.45399 0
    outer loop
      vertex -3.3287 1.08156 1
      vertex -2.83156 2.05725 0
      vertex -2.83156 2.05725 1
    endloop
  endfacet
  facet normal 0.891007 -0.45399 0
    outer loop
      vertex -2.83156 2.05725 0
      vertex -3.3287 1.08156 1
      vertex -3.3287 1.08156 0
    endloop
  endfacet
  facet normal 0.707107 -0.707107 0
    outer loop
      vertex -2.83156 2.05725 1
      vertex -2.05725 2.83156 0
      vertex -2.05725 2.83156 1
    endloop
  endfacet
  facet normal 0.707107 -0.707107 0
    outer loop
      vertex -2.05725 2.83156 0
      vertex -2.83156 2.05725 1
      vertex -2.83156 2.05725 0
    endloop
  endfacet
  facet normal -0.156435 -0.987688 0
    outer loop
      vertex 0 3.5 0
      vertex 1.08156 3.3287 1
      vertex 0 3.5 1
    endloop
  endfacet
  facet normal -0.156435 -0.987688 -0
    outer loop
      vertex 1.08156 3.3287 1
      vertex 0 3.5 0
      vertex 1.08156 3.3287 0
    endloop
  endfacet
  facet normal 0.156435 -0.987688 0
    outer loop
      vertex -1.08156 3.3287 0
      vertex 0 3.5 1
      vertex -1.08156 3.3287 1
    endloop
  endfacet
  facet normal 0.156435 -0.987688 0
    outer loop
      vertex 0 3.5 1
      vertex -1.08156 3.3287 0
      vertex 0 3.5 0
    endloop
  endfacet
  facet normal 0.156435 0.987688 -0
    outer loop
      vertex 0 -3.5 0
      vertex -1.08156 -3.3287 1
      vertex 0 -3.5 1
    endloop
  endfacet
  facet normal 0.156435 0.987688 0
    outer loop
      vertex -1.08156 -3.3287 1
      vertex 0 -3.5 0
      vertex -1.08156 -3.3287 0
    endloop
  endfacet
  facet normal 0.707107 0.707107 0
    outer loop
      vertex -2.05725 -2.83156 1
      vertex -2.83156 -2.05725 0
      vertex -2.83156 -2.05725 1
    endloop
  endfacet
  facet normal 0.707107 0.707107 0
    outer loop
      vertex -2.83156 -2.05725 0
      vertex -2.05725 -2.83156 1
      vertex -2.05725 -2.83156 0
    endloop
  endfacet
  facet normal 0.891007 0.45399 0
    outer loop
      vertex -2.83156 -2.05725 1
      vertex -3.3287 -1.08156 0
      vertex -3.3287 -1.08156 1
    endloop
  endfacet
  facet normal 0.891007 0.45399 0
    outer loop
      vertex -3.3287 -1.08156 0
      vertex -2.83156 -2.05725 1
      vertex -2.83156 -2.05725 0
    endloop
  endfacet
  facet normal 0.45399 -0.891007 0
    outer loop
      vertex -2.05725 2.83156 0
      vertex -1.08156 3.3287 1
      vertex -2.05725 2.83156 1
    endloop
  endfacet
  facet normal 0.45399 -0.891007 0
    outer loop
      vertex -1.08156 3.3287 1
      vertex -2.05725 2.83156 0
      vertex -1.08156 3.3287 0
    endloop
  endfacet
  facet normal -0.45399 -0.891007 0
    outer loop
      vertex 1.08156 3.3287 0
      vertex 2.05725 2.83156 1
      vertex 1.08156 3.3287 1
    endloop
  endfacet
  facet normal -0.45399 -0.891007 -0
    outer loop
      vertex 2.05725 2.83156 1
      vertex 1.08156 3.3287 0
      vertex 2.05725 2.83156 0
    endloop
  endfacet
  facet normal -0.707107 -0.707107 0
    outer loop
      vertex 2.83156 2.05725 0
      vertex 2.05725 2.83156 1
      vertex 2.05725 2.83156 0
    endloop
  endfacet
  facet normal -0.707107 -0.707107 0
    outer loop
      vertex 2.05725 2.83156 1
      vertex 2.83156 2.05725 0
      vertex 2.83156 2.05725 1
    endloop
  endfacet
  facet normal -0.891007 -0.45399 0
    outer loop
      vertex 3.3287 1.08156 0
      vertex 2.83156 2.05725 1
      vertex 2.83156 2.05725 0
    endloop
  endfacet
  facet normal -0.891007 -0.45399 0
    outer loop
      vertex 2.83156 2.05725 1
      vertex 3.3287 1.08156 0
      vertex 3.3287 1.08156 1
    endloop
  endfacet
  facet normal -0.987688 -0.156435 0
    outer loop
      vertex 3.5 0 0
      vertex 3.3287 1.08156 1
      vertex 3.3287 1.08156 0
    endloop
  endfacet
  facet normal -0.987688 -0.156435 0
    outer loop
      vertex 3.3287 1.08156 1
      vertex 3.5 0 0
      vertex 3.5 0 1
    endloop
  endfacet
  facet normal 0 0 -1
    outer loop
      vertex -15.0056 -13.9783 0
      vertex -2.83156 -2.05725 0
      vertex -14.5595 -14.2056 0
    endloop
  endfacet
  facet normal 0 0 -1
    outer loop
      vertex -3.5 0 0
      vertex -13.9783 15.0056 0
      vertex -13.9 15.5 0
    endloop
  endfacet
  facet normal -0 0 -1
    outer loop
      vertex -2.83156 -2.05725 0
      vertex -15.0056 -13.9783 0
      vertex -3.3287 -1.08156 0
    endloop
  endfacet
  facet normal 0 0 -1
    outer loop
      vertex -3.5 0 0
      vertex -14.2056 14.5595 0
      vertex -13.9783 15.0056 0
    endloop
  endfacet
  facet normal 0 0 -1
    outer loop
      vertex -15.5 -13.9 0
      vertex -3.3287 -1.08156 0
      vertex -15.0056 -13.9783 0
    endloop
  endfacet
  facet normal 0 0 -1
    outer loop
      vertex -3.5 0 0
      vertex -14.5595 14.2056 0
      vertex -14.2056 14.5595 0
    endloop
  endfacet
  facet normal -0 0 -1
    outer loop
      vertex -3.3287 -1.08156 0
      vertex -15.5 -13.9 0
      vertex -3.5 0 0
    endloop
  endfacet
  facet normal 0 0 -1
    outer loop
      vertex -3.5 0 0
      vertex -15.0056 13.9783 0
      vertex -14.5595 14.2056 0
    endloop
  endfacet
  facet normal 0 0 -1
    outer loop
      vertex -15.5 13.9 0
      vertex -3.5 0 0
      vertex -15.5 -13.9 0
    endloop
  endfacet
  facet normal 0 0 -1
    outer loop
      vertex -3.5 0 0
      vertex -15.5 13.9 0
      vertex -15.0056 13.9783 0
    endloop
  endfacet
  facet normal 0 0 -1
    outer loop
      vertex -15.9944 -13.9783 0
      vertex -15.5 13.9 0
      vertex -15.5 -13.9 0
    endloop
  endfacet
  facet normal 0 0 -1
    outer loop
      vertex -15.9944 -13.9783 0
      vertex -15.9944 13.9783 0
      vertex -15.5 13.9 0
    endloop
  endfacet
  facet normal 0 0 -1
    outer loop
      vertex -16.4405 -14.2056 0
      vertex -15.9944 13.9783 0
      vertex -15.9944 -13.9783 0
    endloop
  endfacet
  facet normal 0 0 -1
    outer loop
      vertex -16.4405 -14.2056 0
      vertex -16.4405 14.2056 0
      vertex -15.9944 13.9783 0
    endloop
  endfacet
  facet normal 0 0 -1
    outer loop
      vertex -16.7944 -14.5595 0
      vertex -16.4405 14.2056 0
      vertex -16.4405 -14.2056 0
    endloop
  endfacet
  facet normal 0 0 -1
    outer loop
      vertex -16.7944 -14.5595 0
      vertex -16.7944 14.5595 0
      vertex -16.4405 14.2056 0
    endloop
  endfacet
  facet normal 0 0 -1
    outer loop
      vertex -17.0217 -15.0056 0
      vertex -16.7944 14.5595 0
      vertex -16.7944 -14.5595 0
    endloop
  endfacet
  facet normal 0 0 -1
    outer loop
      vertex -17.0217 -15.0056 0
      vertex -17.0217 15.0056 0
      vertex -16.7944 14.5595 0
    endloop
  endfacet
  facet normal 0 0 -1
    outer loop
      vertex -21.15 -21.15 0
      vertex -17.0217 -15.0056 0
      vertex -17.1 -15.5 0
    endloop
  endfacet
  facet normal -0 0 -1
    outer loop
      vertex -17.0217 -15.0056 0
      vertex -21.15 -21.15 0
      vertex -17.0217 15.0056 0
    endloop
  endfacet
  facet normal 0 0 -1
    outer loop
      vertex 17.0217 15.0056 0
      vertex 21.15 21.15 0
      vertex 17.0217 -15.0056 0
    endloop
  endfacet
  facet normal 0 0 -1
    outer loop
      vertex 21.15 21.15 0
      vertex 17.0217 15.0056 0
      vertex 17.1 15.5 0
    endloop
  endfacet
  facet normal 0 0 -1
    outer loop
      vertex 16.7944 -14.5595 0
      vertex 17.0217 15.0056 0
      vertex 17.0217 -15.0056 0
    endloop
  endfacet
  facet normal 0 0 -1
    outer loop
      vertex 16.7944 -14.5595 0
      vertex 16.7944 14.5595 0
      vertex 17.0217 15.0056 0
    endloop
  endfacet
  facet normal 0 0 -1
    outer loop
      vertex 16.4405 -14.2056 0
      vertex 16.7944 14.5595 0
      vertex 16.7944 -14.5595 0
    endloop
  endfacet
  facet normal 0 0 -1
    outer loop
      vertex 16.4405 -14.2056 0
      vertex 16.4405 14.2056 0
      vertex 16.7944 14.5595 0
    endloop
  endfacet
  facet normal 0 0 -1
    outer loop
      vertex 15.9944 -13.9783 0
      vertex 16.4405 14.2056 0
      vertex 16.4405 -14.2056 0
    endloop
  endfacet
  facet normal 0 0 -1
    outer loop
      vertex 15.9944 -13.9783 0
      vertex 15.9944 13.9783 0
      vertex 16.4405 14.2056 0
    endloop
  endfacet
  facet normal 0 0 -1
    outer loop
      vertex 15.5 -13.9 0
      vertex 15.9944 13.9783 0
      vertex 15.9944 -13.9783 0
    endloop
  endfacet
  facet normal 0 0 -1
    outer loop
      vertex 15.5 -13.9 0
      vertex 15.5 13.9 0
      vertex 15.9944 13.9783 0
    endloop
  endfacet
  facet normal 0 0 -1
    outer loop
      vertex 3.3287 -1.08156 0
      vertex 15.5 -13.9 0
      vertex 15.0056 -13.9783 0
    endloop
  endfacet
  facet normal 0 0 -1
    outer loop
      vertex 15.5 -13.9 0
      vertex 3.5 0 0
      vertex 15.5 13.9 0
    endloop
  endfacet
  facet normal 0 0 -1
    outer loop
      vertex 2.83156 -2.05725 0
      vertex 15.0056 -13.9783 0
      vertex 14.5595 -14.2056 0
    endloop
  endfacet
  facet normal 0 0 -1
    outer loop
      vertex 3.3287 1.08156 0
      vertex 15.5 13.9 0
      vertex 3.5 0 0
    endloop
  endfacet
  facet normal 0 0 -1
    outer loop
      vertex 2.83156 -2.05725 0
      vertex 14.5595 -14.2056 0
      vertex 14.2056 -14.5595 0
    endloop
  endfacet
  facet normal -0 0 -1
    outer loop
      vertex 15.5 13.9 0
      vertex 3.3287 1.08156 0
      vertex 15.0056 13.9783 0
    endloop
  endfacet
  facet normal 0 0 -1
    outer loop
      vertex 2.05725 -2.83156 0
      vertex 14.2056 -14.5595 0
      vertex 13.9783 -15.0056 0
    endloop
  endfacet
  facet normal 0 0 -1
    outer loop
      vertex 2.83156 2.05725 0
      vertex 15.0056 13.9783 0
      vertex 3.3287 1.08156 0
    endloop
  endfacet
  facet normal 0 0 -1
    outer loop
      vertex 1.08156 -3.3287 0
      vertex 13.9783 -15.0056 0
      vertex 13.9 -15.5 0
    endloop
  endfacet
  facet normal -0 0 -1
    outer loop
      vertex 15.0056 13.9783 0
      vertex 2.83156 2.05725 0
      vertex 14.5595 14.2056 0
    endloop
  endfacet
  facet normal 0 0 -1
    outer loop
      vertex 17.0217 -15.0056 0
      vertex 21.15 -21.15 0
      vertex 17.1 -15.5 0
    endloop
  endfacet
  facet normal 0 0 -1
    outer loop
      vertex 21.15 -21.15 0
      vertex 17.0217 -15.9944 0
      vertex 17.1 -15.5 0
    endloop
  endfacet
  facet normal 0 0 -1
    outer loop
      vertex 21.15 -21.15 0
      vertex 16.7944 -16.4405 0
      vertex 17.0217 -15.9944 0
    endloop
  endfacet
  facet normal 0 0 -1
    outer loop
      vertex 21.15 -21.15 0
      vertex 16.4405 -16.7944 0
      vertex 16.7944 -16.4405 0
    endloop
  endfacet
  facet normal 0 0 -1
    outer loop
      vertex 21.15 -21.15 0
      vertex 15.9944 -17.0217 0
      vertex 16.4405 -16.7944 0
    endloop
  endfacet
  facet normal 0 0 -1
    outer loop
      vertex 21.15 -21.15 0
      vertex 15.5 -17.1 0
      vertex 15.9944 -17.0217 0
    endloop
  endfacet
  facet normal 0 0 -1
    outer loop
      vertex 21.15 -21.15 0
      vertex 15.0056 -17.0217 0
      vertex 15.5 -17.1 0
    endloop
  endfacet
  facet normal 0 0 -1
    outer loop
      vertex 21.15 -21.15 0
      vertex 14.5595 -16.7944 0
      vertex 15.0056 -17.0217 0
    endloop
  endfacet
  facet normal -0 0 -1
    outer loop
      vertex 14.5595 14.2056 0
      vertex 2.83156 2.05725 0
      vertex 14.2056 14.5595 0
    endloop
  endfacet
  facet normal 0 0 -1
    outer loop
      vertex -13.9 -15.5 0
      vertex 13.9 -15.5 0
      vertex 13.9783 -15.9944 0
    endloop
  endfacet
  facet normal 0 0 -1
    outer loop
      vertex -13.9783 -15.9944 0
      vertex 13.9783 -15.9944 0
      vertex 14.2056 -16.4405 0
    endloop
  endfacet
  facet normal 0 0 -1
    outer loop
      vertex 15.5 -13.9 0
      vertex 3.3287 -1.08156 0
      vertex 3.5 0 0
    endloop
  endfacet
  facet normal 0 0 -1
    outer loop
      vertex 15.0056 -13.9783 0
      vertex 2.83156 -2.05725 0
      vertex 3.3287 -1.08156 0
    endloop
  endfacet
  facet normal 0 0 -1
    outer loop
      vertex 14.2056 -14.5595 0
      vertex 2.05725 -2.83156 0
      vertex 2.83156 -2.05725 0
    endloop
  endfacet
  facet normal 0 0 -1
    outer loop
      vertex 13.9783 -15.0056 0
      vertex 1.08156 -3.3287 0
      vertex 2.05725 -2.83156 0
    endloop
  endfacet
  facet normal 0 0 -1
    outer loop
      vertex -14.2056 -16.4405 0
      vertex 14.2056 -16.4405 0
      vertex 14.5595 -16.7944 0
    endloop
  endfacet
  facet normal 0 0 -1
    outer loop
      vertex 13.9 -15.5 0
      vertex 0 -3.5 0
      vertex 1.08156 -3.3287 0
    endloop
  endfacet
  facet normal 0 0 -1
    outer loop
      vertex 13.9 -15.5 0
      vertex -13.9 -15.5 0
      vertex 0 -3.5 0
    endloop
  endfacet
  facet normal -0 0 -1
    outer loop
      vertex 0 -3.5 0
      vertex -13.9 -15.5 0
      vertex -1.08156 -3.3287 0
    endloop
  endfacet
  facet normal -0 0 -1
    outer loop
      vertex -2.05725 -2.83156 0
      vertex -14.2056 -14.5595 0
      vertex -2.83156 -2.05725 0
    endloop
  endfacet
  facet normal 0 0 -1
    outer loop
      vertex -14.2056 -14.5595 0
      vertex -2.05725 -2.83156 0
      vertex -13.9783 -15.0056 0
    endloop
  endfacet
  facet normal -0 0 -1
    outer loop
      vertex -1.08156 -3.3287 0
      vertex -13.9783 -15.0056 0
      vertex -2.05725 -2.83156 0
    endloop
  endfacet
  facet normal 0 0 -1
    outer loop
      vertex -13.9783 -15.0056 0
      vertex -1.08156 -3.3287 0
      vertex -13.9 -15.5 0
    endloop
  endfacet
  facet normal 0 0 -1
    outer loop
      vertex -14.5595 -16.7944 0
      vertex 14.5595 -16.7944 0
      vertex 21.15 -21.15 0
    endloop
  endfacet
  facet normal 0 0 -1
    outer loop
      vertex 13.9783 -15.9944 0
      vertex -13.9783 -15.9944 0
      vertex -13.9 -15.5 0
    endloop
  endfacet
  facet normal 0 0 -1
    outer loop
      vertex 14.2056 -16.4405 0
      vertex -14.2056 -16.4405 0
      vertex -13.9783 -15.9944 0
    endloop
  endfacet
  facet normal 0 0 -1
    outer loop
      vertex 14.5595 -16.7944 0
      vertex -14.5595 -16.7944 0
      vertex -14.2056 -16.4405 0
    endloop
  endfacet
  facet normal 0 0 -1
    outer loop
      vertex 21.15 -21.15 0
      vertex -15.0056 -17.0217 0
      vertex -14.5595 -16.7944 0
    endloop
  endfacet
  facet normal 0 0 -1
    outer loop
      vertex -21.15 -21.15 0
      vertex -15.0056 -17.0217 0
      vertex 21.15 -21.15 0
    endloop
  endfacet
  facet normal 0 0 -1
    outer loop
      vertex -21.15 21.15 0
      vertex -17.0217 15.0056 0
      vertex -21.15 -21.15 0
    endloop
  endfacet
  facet normal -0 0 -1
    outer loop
      vertex -17.0217 -15.9944 0
      vertex -21.15 -21.15 0
      vertex -17.1 -15.5 0
    endloop
  endfacet
  facet normal -0 0 -1
    outer loop
      vertex -16.7944 -16.4405 0
      vertex -21.15 -21.15 0
      vertex -17.0217 -15.9944 0
    endloop
  endfacet
  facet normal -0 0 -1
    outer loop
      vertex -16.4405 -16.7944 0
      vertex -21.15 -21.15 0
      vertex -16.7944 -16.4405 0
    endloop
  endfacet
  facet normal -0 0 -1
    outer loop
      vertex -15.9944 -17.0217 0
      vertex -21.15 -21.15 0
      vertex -16.4405 -16.7944 0
    endloop
  endfacet
  facet normal -0 0 -1
    outer loop
      vertex -15.5 -17.1 0
      vertex -21.15 -21.15 0
      vertex -15.9944 -17.0217 0
    endloop
  endfacet
  facet normal 0 0 -1
    outer loop
      vertex -15.0056 -17.0217 0
      vertex -21.15 -21.15 0
      vertex -15.5 -17.1 0
    endloop
  endfacet
  facet normal 0 0 -1
    outer loop
      vertex 21.15 -21.15 0
      vertex 17.0217 -15.0056 0
      vertex 21.15 21.15 0
    endloop
  endfacet
  facet normal 0 0 -1
    outer loop
      vertex 17.0217 15.9944 0
      vertex 21.15 21.15 0
      vertex 17.1 15.5 0
    endloop
  endfacet
  facet normal 0 0 -1
    outer loop
      vertex 16.7944 16.4405 0
      vertex 21.15 21.15 0
      vertex 17.0217 15.9944 0
    endloop
  endfacet
  facet normal 0 0 -1
    outer loop
      vertex 16.4405 16.7944 0
      vertex 21.15 21.15 0
      vertex 16.7944 16.4405 0
    endloop
  endfacet
  facet normal 0 0 -1
    outer loop
      vertex 15.9944 17.0217 0
      vertex 21.15 21.15 0
      vertex 16.4405 16.7944 0
    endloop
  endfacet
  facet normal 0 0 -1
    outer loop
      vertex 15.5 17.1 0
      vertex 21.15 21.15 0
      vertex 15.9944 17.0217 0
    endloop
  endfacet
  facet normal 0 0 -1
    outer loop
      vertex 15.0056 17.0217 0
      vertex 21.15 21.15 0
      vertex 15.5 17.1 0
    endloop
  endfacet
  facet normal 0 0 -1
    outer loop
      vertex 14.5595 16.7944 0
      vertex 21.15 21.15 0
      vertex 15.0056 17.0217 0
    endloop
  endfacet
  facet normal 0 0 -1
    outer loop
      vertex 2.05725 2.83156 0
      vertex 14.2056 14.5595 0
      vertex 2.83156 2.05725 0
    endloop
  endfacet
  facet normal -0 0 -1
    outer loop
      vertex 14.2056 14.5595 0
      vertex 2.05725 2.83156 0
      vertex 13.9783 15.0056 0
    endloop
  endfacet
  facet normal 0 0 -1
    outer loop
      vertex 1.08156 3.3287 0
      vertex 13.9783 15.0056 0
      vertex 2.05725 2.83156 0
    endloop
  endfacet
  facet normal -0 0 -1
    outer loop
      vertex 13.9783 15.0056 0
      vertex 1.08156 3.3287 0
      vertex 13.9 15.5 0
    endloop
  endfacet
  facet normal 0 0 -1
    outer loop
      vertex 0 3.5 0
      vertex 13.9 15.5 0
      vertex 1.08156 3.3287 0
    endloop
  endfacet
  facet normal 0 0 -1
    outer loop
      vertex -13.9 15.5 0
      vertex 13.9 15.5 0
      vertex 0 3.5 0
    endloop
  endfacet
  facet normal 0 0 -1
    outer loop
      vertex 13.9 15.5 0
      vertex -13.9 15.5 0
      vertex 13.9783 15.9944 0
    endloop
  endfacet
  facet normal 0 0 -1
    outer loop
      vertex -13.9783 15.9944 0
      vertex 13.9783 15.9944 0
      vertex -13.9 15.5 0
    endloop
  endfacet
  facet normal 0 0 -1
    outer loop
      vertex -13.9 15.5 0
      vertex 0 3.5 0
      vertex -1.08156 3.3287 0
    endloop
  endfacet
  facet normal 0 0 -1
    outer loop
      vertex -13.9 15.5 0
      vertex -1.08156 3.3287 0
      vertex -2.05725 2.83156 0
    endloop
  endfacet
  facet normal 0 0 -1
    outer loop
      vertex -14.5595 -14.2056 0
      vertex -2.83156 -2.05725 0
      vertex -14.2056 -14.5595 0
    endloop
  endfacet
  facet normal 0 0 -1
    outer loop
      vertex -3.5 0 0
      vertex -13.9 15.5 0
      vertex -3.3287 1.08156 0
    endloop
  endfacet
  facet normal 0 0 -1
    outer loop
      vertex -3.3287 1.08156 0
      vertex -13.9 15.5 0
      vertex -2.83156 2.05725 0
    endloop
  endfacet
  facet normal 0 0 -1
    outer loop
      vertex -13.9 15.5 0
      vertex -2.05725 2.83156 0
      vertex -2.83156 2.05725 0
    endloop
  endfacet
  facet normal 0 0 -1
    outer loop
      vertex 13.9783 15.9944 0
      vertex -13.9783 15.9944 0
      vertex 14.2056 16.4405 0
    endloop
  endfacet
  facet normal 0 0 -1
    outer loop
      vertex -14.2056 16.4405 0
      vertex 14.2056 16.4405 0
      vertex -13.9783 15.9944 0
    endloop
  endfacet
  facet normal 0 0 -1
    outer loop
      vertex 14.2056 16.4405 0
      vertex -14.2056 16.4405 0
      vertex 14.5595 16.7944 0
    endloop
  endfacet
  facet normal 0 0 -1
    outer loop
      vertex -14.5595 16.7944 0
      vertex 14.5595 16.7944 0
      vertex -14.2056 16.4405 0
    endloop
  endfacet
  facet normal 0 0 -1
    outer loop
      vertex 14.5595 16.7944 0
      vertex -14.5595 16.7944 0
      vertex 21.15 21.15 0
    endloop
  endfacet
  facet normal 0 0 -1
    outer loop
      vertex -15.0056 17.0217 0
      vertex 21.15 21.15 0
      vertex -14.5595 16.7944 0
    endloop
  endfacet
  facet normal 0 0 -1
    outer loop
      vertex -21.15 21.15 0
      vertex -15.0056 17.0217 0
      vertex -15.5 17.1 0
    endloop
  endfacet
  facet normal 0 0 -1
    outer loop
      vertex -15.0056 17.0217 0
      vertex -21.15 21.15 0
      vertex 21.15 21.15 0
    endloop
  endfacet
  facet normal 0 0 -1
    outer loop
      vertex -15.9944 17.0217 0
      vertex -21.15 21.15 0
      vertex -15.5 17.1 0
    endloop
  endfacet
  facet normal 0 0 -1
    outer loop
      vertex -16.4405 16.7944 0
      vertex -21.15 21.15 0
      vertex -15.9944 17.0217 0
    endloop
  endfacet
  facet normal 0 0 -1
    outer loop
      vertex -16.7944 16.4405 0
      vertex -21.15 21.15 0
      vertex -16.4405 16.7944 0
    endloop
  endfacet
  facet normal 0 0 -1
    outer loop
      vertex -17.0217 15.9944 0
      vertex -21.15 21.15 0
      vertex -16.7944 16.4405 0
    endloop
  endfacet
  facet normal 0 0 -1
    outer loop
      vertex -17.1 15.5 0
      vertex -21.15 21.15 0
      vertex -17.0217 15.9944 0
    endloop
  endfacet
  facet normal 0 0 -1
    outer loop
      vertex -17.0217 15.0056 0
      vertex -21.15 21.15 0
      vertex -17.1 15.5 0
    endloop
  endfacet
  facet normal 1 -0 0
    outer loop
      vertex 21.15 -21.15 3
      vertex 21.15 21.15 0
      vertex 21.15 21.15 3
    endloop
  endfacet
  facet normal 1 0 0
    outer loop
      vertex 21.15 21.15 0
      vertex 21.15 -21.15 3
      vertex 21.15 -21.15 0
    endloop
  endfacet
  facet normal -1 0 0
    outer loop
      vertex -21.15 -21.15 0
      vertex -21.15 21.15 3
      vertex -21.15 21.15 0
    endloop
  endfacet
  facet normal -1 -0 0
    outer loop
      vertex -21.15 21.15 3
      vertex -21.15 -21.15 0
      vertex -21.15 -21.15 3
    endloop
  endfacet
  facet normal 0 -1 0
    outer loop
      vertex -21.15 -21.15 0
      vertex 21.15 -21.15 3
      vertex -21.15 -21.15 3
    endloop
  endfacet
  facet normal 0 -1 -0
    outer loop
      vertex 21.15 -21.15 3
      vertex -21.15 -21.15 0
      vertex 21.15 -21.15 0
    endloop
  endfacet
  facet normal 0 1 -0
    outer loop
      vertex 21.15 21.15 0
      vertex -21.15 21.15 3
      vertex 21.15 21.15 3
    endloop
  endfacet
  facet normal 0 1 0
    outer loop
      vertex -21.15 21.15 3
      vertex 21.15 21.15 0
      vertex -21.15 21.15 0
    endloop
  endfacet
  facet normal -0 0 1
    outer loop
      vertex -15.0056 13.9783 3
      vertex -10.1127 7.34731 3
      vertex -14.5595 14.2056 3
    endloop
  endfacet
  facet normal 0 0 1
    outer loop
      vertex -12.5 0 3
      vertex -13.9783 -15.0056 3
      vertex -13.9 -15.5 3
    endloop
  endfacet
  facet normal -0 0 1
    outer loop
      vertex -15.5 13.9 3
      vertex -10.1127 7.34731 3
      vertex -15.0056 13.9783 3
    endloop
  endfacet
  facet normal 0 0 1
    outer loop
      vertex -12.5 0 3
      vertex -14.2056 -14.5595 3
      vertex -13.9783 -15.0056 3
    endloop
  endfacet
  facet normal 0 0 1
    outer loop
      vertex -10.1127 7.34731 3
      vertex -15.5 13.9 3
      vertex -11.8882 3.86271 3
    endloop
  endfacet
  facet normal 0 0 1
    outer loop
      vertex -12.5 0 3
      vertex -14.5595 -14.2056 3
      vertex -14.2056 -14.5595 3
    endloop
  endfacet
  facet normal 0 0 1
    outer loop
      vertex -15.9944 13.9783 3
      vertex -11.8882 3.86271 3
      vertex -15.5 13.9 3
    endloop
  endfacet
  facet normal 0 0 1
    outer loop
      vertex -12.5 0 3
      vertex -15.0056 -13.9783 3
      vertex -14.5595 -14.2056 3
    endloop
  endfacet
  facet normal 0 0 1
    outer loop
      vertex -16.4405 14.2056 3
      vertex -11.8882 3.86271 3
      vertex -15.9944 13.9783 3
    endloop
  endfacet
  facet normal 0 0 1
    outer loop
      vertex -12.5 0 3
      vertex -15.5 -13.9 3
      vertex -15.0056 -13.9783 3
    endloop
  endfacet
  facet normal 0 0 1
    outer loop
      vertex -11.8882 3.86271 3
      vertex -16.4405 14.2056 3
      vertex -12.5 0 3
    endloop
  endfacet
  facet normal 0 0 1
    outer loop
      vertex -12.5 0 3
      vertex -15.9944 -13.9783 3
      vertex -15.5 -13.9 3
    endloop
  endfacet
  facet normal 0 0 1
    outer loop
      vertex -16.7944 14.5595 3
      vertex -12.5 0 3
      vertex -16.4405 14.2056 3
    endloop
  endfacet
  facet normal 0 0 1
    outer loop
      vertex -12.5 0 3
      vertex -16.4405 -14.2056 3
      vertex -15.9944 -13.9783 3
    endloop
  endfacet
  facet normal 0 0 1
    outer loop
      vertex -16.7944 -14.5595 3
      vertex -12.5 0 3
      vertex -16.7944 14.5595 3
    endloop
  endfacet
  facet normal 0 0 1
    outer loop
      vertex -12.5 0 3
      vertex -16.7944 -14.5595 3
      vertex -16.4405 -14.2056 3
    endloop
  endfacet
  facet normal 0 0 1
    outer loop
      vertex -17.0217 15.0056 3
      vertex -16.7944 -14.5595 3
      vertex -16.7944 14.5595 3
    endloop
  endfacet
  facet normal 0 0 1
    outer loop
      vertex -17.0217 15.0056 3
      vertex -17.0217 -15.0056 3
      vertex -16.7944 -14.5595 3
    endloop
  endfacet
  facet normal 0 0 1
    outer loop
      vertex -21.15 21.15 3
      vertex -17.0217 15.0056 3
      vertex -17.1 15.5 3
    endloop
  endfacet
  facet normal 0 0 1
    outer loop
      vertex -17.0217 15.0056 3
      vertex -21.15 21.15 3
      vertex -17.0217 -15.0056 3
    endloop
  endfacet
  facet normal -0 0 1
    outer loop
      vertex 17.0217 -15.0056 3
      vertex 21.15 -21.15 3
      vertex 17.0217 15.0056 3
    endloop
  endfacet
  facet normal 0 0 1
    outer loop
      vertex 21.15 -21.15 3
      vertex 17.0217 -15.0056 3
      vertex 17.1 -15.5 3
    endloop
  endfacet
  facet normal -0 0 1
    outer loop
      vertex 16.7944 14.5595 3
      vertex 17.0217 -15.0056 3
      vertex 17.0217 15.0056 3
    endloop
  endfacet
  facet normal 0 0 1
    outer loop
      vertex 16.7944 14.5595 3
      vertex 16.7944 -14.5595 3
      vertex 17.0217 -15.0056 3
    endloop
  endfacet
  facet normal 0 0 1
    outer loop
      vertex 12.5 0 3
      vertex 16.7944 14.5595 3
      vertex 16.4405 14.2056 3
    endloop
  endfacet
  facet normal 0 0 1
    outer loop
      vertex 16.7944 14.5595 3
      vertex 12.5 0 3
      vertex 16.7944 -14.5595 3
    endloop
  endfacet
  facet normal 0 0 1
    outer loop
      vertex 11.8882 3.86271 3
      vertex 16.4405 14.2056 3
      vertex 15.9944 13.9783 3
    endloop
  endfacet
  facet normal 0 0 1
    outer loop
      vertex 16.7944 -14.5595 3
      vertex 12.5 0 3
      vertex 16.4405 -14.2056 3
    endloop
  endfacet
  facet normal 0 0 1
    outer loop
      vertex 11.8882 3.86271 3
      vertex 15.9944 13.9783 3
      vertex 15.5 13.9 3
    endloop
  endfacet
  facet normal -0 0 1
    outer loop
      vertex 11.8882 -3.86271 3
      vertex 16.4405 -14.2056 3
      vertex 12.5 0 3
    endloop
  endfacet
  facet normal 0 0 1
    outer loop
      vertex 10.1127 7.34731 3
      vertex 15.5 13.9 3
      vertex 15.0056 13.9783 3
    endloop
  endfacet
  facet normal 0 0 1
    outer loop
      vertex 16.4405 -14.2056 3
      vertex 11.8882 -3.86271 3
      vertex 15.9944 -13.9783 3
    endloop
  endfacet
  facet normal 0 0 1
    outer loop
      vertex 10.1127 7.34731 3
      vertex 15.0056 13.9783 3
      vertex 14.5595 14.2056 3
    endloop
  endfacet
  facet normal 0 0 1
    outer loop
      vertex 15.9944 -13.9783 3
      vertex 11.8882 -3.86271 3
      vertex 15.5 -13.9 3
    endloop
  endfacet
  facet normal 0 0 1
    outer loop
      vertex 10.1127 7.34731 3
      vertex 14.5595 14.2056 3
      vertex 14.2056 14.5595 3
    endloop
  endfacet
  facet normal -0 0 1
    outer loop
      vertex 10.1127 -7.34731 3
      vertex 15.5 -13.9 3
      vertex 11.8882 -3.86271 3
    endloop
  endfacet
  facet normal 0 0 1
    outer loop
      vertex 7.34731 10.1127 3
      vertex 14.2056 14.5595 3
      vertex 13.9783 15.0056 3
    endloop
  endfacet
  facet normal 0 0 1
    outer loop
      vertex 15.5 -13.9 3
      vertex 10.1127 -7.34731 3
      vertex 15.0056 -13.9783 3
    endloop
  endfacet
  facet normal 0 0 1
    outer loop
      vertex 7.34731 10.1127 3
      vertex 13.9783 15.0056 3
      vertex 13.9 15.5 3
    endloop
  endfacet
  facet normal 0 0 1
    outer loop
      vertex 15.0056 -13.9783 3
      vertex 10.1127 -7.34731 3
      vertex 14.5595 -14.2056 3
    endloop
  endfacet
  facet normal 0 0 1
    outer loop
      vertex 17.0217 15.0056 3
      vertex 21.15 21.15 3
      vertex 17.1 15.5 3
    endloop
  endfacet
  facet normal 0 0 1
    outer loop
      vertex 21.15 21.15 3
      vertex 17.0217 15.9944 3
      vertex 17.1 15.5 3
    endloop
  endfacet
  facet normal 0 0 1
    outer loop
      vertex 21.15 21.15 3
      vertex 16.7944 16.4405 3
      vertex 17.0217 15.9944 3
    endloop
  endfacet
  facet normal 0 0 1
    outer loop
      vertex 21.15 21.15 3
      vertex 16.4405 16.7944 3
      vertex 16.7944 16.4405 3
    endloop
  endfacet
  facet normal 0 0 1
    outer loop
      vertex 21.15 21.15 3
      vertex 15.9944 17.0217 3
      vertex 16.4405 16.7944 3
    endloop
  endfacet
  facet normal 0 0 1
    outer loop
      vertex 21.15 21.15 3
      vertex 15.5 17.1 3
      vertex 15.9944 17.0217 3
    endloop
  endfacet
  facet normal 0 0 1
    outer loop
      vertex 21.15 21.15 3
      vertex 15.0056 17.0217 3
      vertex 15.5 17.1 3
    endloop
  endfacet
  facet normal 0 0 1
    outer loop
      vertex 21.15 21.15 3
      vertex 14.5595 16.7944 3
      vertex 15.0056 17.0217 3
    endloop
  endfacet
  facet normal 0 0 1
    outer loop
      vertex 14.5595 -14.2056 3
      vertex 10.1127 -7.34731 3
      vertex 14.2056 -14.5595 3
    endloop
  endfacet
  facet normal 0 0 1
    outer loop
      vertex 16.4405 14.2056 3
      vertex 11.8882 3.86271 3
      vertex 12.5 0 3
    endloop
  endfacet
  facet normal 0 0 1
    outer loop
      vertex 3.86271 11.8882 3
      vertex 13.9 15.5 3
      vertex 13.9783 15.9944 3
    endloop
  endfacet
  facet normal 0 0 1
    outer loop
      vertex 15.5 13.9 3
      vertex 10.1127 7.34731 3
      vertex 11.8882 3.86271 3
    endloop
  endfacet
  facet normal 0 0 1
    outer loop
      vertex 14.2056 14.5595 3
      vertex 7.34731 10.1127 3
      vertex 10.1127 7.34731 3
    endloop
  endfacet
  facet normal 0 0 1
    outer loop
      vertex 3.86271 11.8882 3
      vertex 13.9783 15.9944 3
      vertex 14.2056 16.4405 3
    endloop
  endfacet
  facet normal 0 0 1
    outer loop
      vertex 0 12.5 3
      vertex 14.2056 16.4405 3
      vertex 14.5595 16.7944 3
    endloop
  endfacet
  facet normal 0 0 1
    outer loop
      vertex 13.9 15.5 3
      vertex 3.86271 11.8882 3
      vertex 7.34731 10.1127 3
    endloop
  endfacet
  facet normal 0 0 1
    outer loop
      vertex -14.5595 16.7944 3
      vertex 14.5595 16.7944 3
      vertex 21.15 21.15 3
    endloop
  endfacet
  facet normal 0 0 1
    outer loop
      vertex 14.2056 16.4405 3
      vertex 0 12.5 3
      vertex 3.86271 11.8882 3
    endloop
  endfacet
  facet normal 0 0 1
    outer loop
      vertex 14.5595 16.7944 3
      vertex -14.5595 16.7944 3
      vertex 0 12.5 3
    endloop
  endfacet
  facet normal 0 0 1
    outer loop
      vertex -7.34731 10.1127 3
      vertex -14.2056 14.5595 3
      vertex -10.1127 7.34731 3
    endloop
  endfacet
  facet normal -0 0 1
    outer loop
      vertex -14.2056 14.5595 3
      vertex -7.34731 10.1127 3
      vertex -13.9783 15.0056 3
    endloop
  endfacet
  facet normal -0 0 1
    outer loop
      vertex -13.9783 15.0056 3
      vertex -7.34731 10.1127 3
      vertex -13.9 15.5 3
    endloop
  endfacet
  facet normal 0 0 1
    outer loop
      vertex -3.86271 11.8882 3
      vertex -13.9 15.5 3
      vertex -7.34731 10.1127 3
    endloop
  endfacet
  facet normal -0 -0 1
    outer loop
      vertex -14.2056 16.4405 3
      vertex 0 12.5 3
      vertex -14.5595 16.7944 3
    endloop
  endfacet
  facet normal 0 0 1
    outer loop
      vertex -3.86271 11.8882 3
      vertex -13.9783 15.9944 3
      vertex -13.9 15.5 3
    endloop
  endfacet
  facet normal 0 0 1
    outer loop
      vertex -3.86271 11.8882 3
      vertex -14.2056 16.4405 3
      vertex -13.9783 15.9944 3
    endloop
  endfacet
  facet normal 0 0 1
    outer loop
      vertex 0 12.5 3
      vertex -14.2056 16.4405 3
      vertex -3.86271 11.8882 3
    endloop
  endfacet
  facet normal 0 0 1
    outer loop
      vertex 21.15 21.15 3
      vertex -15.0056 17.0217 3
      vertex -14.5595 16.7944 3
    endloop
  endfacet
  facet normal -0 0 1
    outer loop
      vertex -21.15 21.15 3
      vertex -15.0056 17.0217 3
      vertex 21.15 21.15 3
    endloop
  endfacet
  facet normal 0 0 1
    outer loop
      vertex -21.15 -21.15 3
      vertex -17.0217 -15.0056 3
      vertex -21.15 21.15 3
    endloop
  endfacet
  facet normal 0 0 1
    outer loop
      vertex -17.0217 15.9944 3
      vertex -21.15 21.15 3
      vertex -17.1 15.5 3
    endloop
  endfacet
  facet normal 0 0 1
    outer loop
      vertex -16.7944 16.4405 3
      vertex -21.15 21.15 3
      vertex -17.0217 15.9944 3
    endloop
  endfacet
  facet normal 0 0 1
    outer loop
      vertex -16.4405 16.7944 3
      vertex -21.15 21.15 3
      vertex -16.7944 16.4405 3
    endloop
  endfacet
  facet normal 0 0 1
    outer loop
      vertex -15.9944 17.0217 3
      vertex -21.15 21.15 3
      vertex -16.4405 16.7944 3
    endloop
  endfacet
  facet normal 0 0 1
    outer loop
      vertex -15.5 17.1 3
      vertex -21.15 21.15 3
      vertex -15.9944 17.0217 3
    endloop
  endfacet
  facet normal 0 0 1
    outer loop
      vertex -15.0056 17.0217 3
      vertex -21.15 21.15 3
      vertex -15.5 17.1 3
    endloop
  endfacet
  facet normal 0 0 1
    outer loop
      vertex 21.15 21.15 3
      vertex 17.0217 15.0056 3
      vertex 21.15 -21.15 3
    endloop
  endfacet
  facet normal -0 0 1
    outer loop
      vertex 17.0217 -15.9944 3
      vertex 21.15 -21.15 3
      vertex 17.1 -15.5 3
    endloop
  endfacet
  facet normal -0 0 1
    outer loop
      vertex 16.7944 -16.4405 3
      vertex 21.15 -21.15 3
      vertex 17.0217 -15.9944 3
    endloop
  endfacet
  facet normal -0 0 1
    outer loop
      vertex 16.4405 -16.7944 3
      vertex 21.15 -21.15 3
      vertex 16.7944 -16.4405 3
    endloop
  endfacet
  facet normal -0 0 1
    outer loop
      vertex 15.9944 -17.0217 3
      vertex 21.15 -21.15 3
      vertex 16.4405 -16.7944 3
    endloop
  endfacet
  facet normal -0 0 1
    outer loop
      vertex 15.5 -17.1 3
      vertex 21.15 -21.15 3
      vertex 15.9944 -17.0217 3
    endloop
  endfacet
  facet normal 0 0 1
    outer loop
      vertex 15.0056 -17.0217 3
      vertex 21.15 -21.15 3
      vertex 15.5 -17.1 3
    endloop
  endfacet
  facet normal 0 0 1
    outer loop
      vertex 14.5595 -16.7944 3
      vertex 21.15 -21.15 3
      vertex 15.0056 -17.0217 3
    endloop
  endfacet
  facet normal -0 0 1
    outer loop
      vertex 7.34731 -10.1127 3
      vertex 14.2056 -14.5595 3
      vertex 10.1127 -7.34731 3
    endloop
  endfacet
  facet normal 0 0 1
    outer loop
      vertex 14.2056 -14.5595 3
      vertex 7.34731 -10.1127 3
      vertex 13.9783 -15.0056 3
    endloop
  endfacet
  facet normal 0 0 1
    outer loop
      vertex 13.9783 -15.0056 3
      vertex 7.34731 -10.1127 3
      vertex 13.9 -15.5 3
    endloop
  endfacet
  facet normal -0 0 1
    outer loop
      vertex 3.86271 -11.8882 3
      vertex 13.9 -15.5 3
      vertex 7.34731 -10.1127 3
    endloop
  endfacet
  facet normal 0 0 1
    outer loop
      vertex 13.9 -15.5 3
      vertex 3.86271 -11.8882 3
      vertex 13.9783 -15.9944 3
    endloop
  endfacet
  facet normal 0 0 1
    outer loop
      vertex 13.9783 -15.9944 3
      vertex 3.86271 -11.8882 3
      vertex 14.2056 -16.4405 3
    endloop
  endfacet
  facet normal -0 0 1
    outer loop
      vertex 0 -12.5 3
      vertex 14.2056 -16.4405 3
      vertex 3.86271 -11.8882 3
    endloop
  endfacet
  facet normal 0 0 1
    outer loop
      vertex 14.2056 -16.4405 3
      vertex 0 -12.5 3
      vertex 14.5595 -16.7944 3
    endloop
  endfacet
  facet normal 0 0 1
    outer loop
      vertex -14.5595 -16.7944 3
      vertex 14.5595 -16.7944 3
      vertex 0 -12.5 3
    endloop
  endfacet
  facet normal 0 0 1
    outer loop
      vertex -14.2056 -16.4405 3
      vertex 0 -12.5 3
      vertex -3.86271 -11.8882 3
    endloop
  endfacet
  facet normal -0 0 1
    outer loop
      vertex -14.5595 14.2056 3
      vertex -10.1127 7.34731 3
      vertex -14.2056 14.5595 3
    endloop
  endfacet
  facet normal 0 0 1
    outer loop
      vertex -13.9 -15.5 3
      vertex -11.8882 -3.86271 3
      vertex -12.5 0 3
    endloop
  endfacet
  facet normal 0 0 1
    outer loop
      vertex -13.9 -15.5 3
      vertex -10.1127 -7.34731 3
      vertex -11.8882 -3.86271 3
    endloop
  endfacet
  facet normal 0 0 1
    outer loop
      vertex -13.9 -15.5 3
      vertex -7.34731 -10.1127 3
      vertex -10.1127 -7.34731 3
    endloop
  endfacet
  facet normal 0 0 1
    outer loop
      vertex -13.9 -15.5 3
      vertex -3.86271 -11.8882 3
      vertex -7.34731 -10.1127 3
    endloop
  endfacet
  facet normal 0 0 1
    outer loop
      vertex -13.9783 -15.9944 3
      vertex -3.86271 -11.8882 3
      vertex -13.9 -15.5 3
    endloop
  endfacet
  facet normal 0 0 1
    outer loop
      vertex -14.2056 -16.4405 3
      vertex -3.86271 -11.8882 3
      vertex -13.9783 -15.9944 3
    endloop
  endfacet
  facet normal 0 0 1
    outer loop
      vertex 0 -12.5 3
      vertex -14.2056 -16.4405 3
      vertex -14.5595 -16.7944 3
    endloop
  endfacet
  facet normal 0 0 1
    outer loop
      vertex 14.5595 -16.7944 3
      vertex -14.5595 -16.7944 3
      vertex 21.15 -21.15 3
    endloop
  endfacet
  facet normal -0 0 1
    outer loop
      vertex -15.0056 -17.0217 3
      vertex 21.15 -21.15 3
      vertex -14.5595 -16.7944 3
    endloop
  endfacet
  facet normal 0 0 1
    outer loop
      vertex -21.15 -21.15 3
      vertex -15.0056 -17.0217 3
      vertex -15.5 -17.1 3
    endloop
  endfacet
  facet normal 0 0 1
    outer loop
      vertex -15.0056 -17.0217 3
      vertex -21.15 -21.15 3
      vertex 21.15 -21.15 3
    endloop
  endfacet
  facet normal 0 0 1
    outer loop
      vertex -15.9944 -17.0217 3
      vertex -21.15 -21.15 3
      vertex -15.5 -17.1 3
    endloop
  endfacet
  facet normal 0 0 1
    outer loop
      vertex -16.4405 -16.7944 3
      vertex -21.15 -21.15 3
      vertex -15.9944 -17.0217 3
    endloop
  endfacet
  facet normal 0 0 1
    outer loop
      vertex -16.7944 -16.4405 3
      vertex -21.15 -21.15 3
      vertex -16.4405 -16.7944 3
    endloop
  endfacet
  facet normal 0 0 1
    outer loop
      vertex -17.0217 -15.9944 3
      vertex -21.15 -21.15 3
      vertex -16.7944 -16.4405 3
    endloop
  endfacet
  facet normal 0 0 1
    outer loop
      vertex -17.1 -15.5 3
      vertex -21.15 -21.15 3
      vertex -17.0217 -15.9944 3
    endloop
  endfacet
  facet normal 0 0 1
    outer loop
      vertex -17.0217 -15.0056 3
      vertex -21.15 -21.15 3
      vertex -17.1 -15.5 3
    endloop
  endfacet
  facet normal -0.987688 0.156435 0
    outer loop
      vertex 11.8882 -3.86271 1
      vertex 12.5 0 3
      vertex 12.5 0 1
    endloop
  endfacet
  facet normal -0.987688 0.156435 0
    outer loop
      vertex 12.5 0 3
      vertex 11.8882 -3.86271 1
      vertex 11.8882 -3.86271 3
    endloop
  endfacet
  facet normal -0.987688 -0.156435 0
    outer loop
      vertex 12.5 0 1
      vertex 11.8882 3.86271 3
      vertex 11.8882 3.86271 1
    endloop
  endfacet
  facet normal -0.987688 -0.156435 0
    outer loop
      vertex 11.8882 3.86271 3
      vertex 12.5 0 1
      vertex 12.5 0 3
    endloop
  endfacet
  facet normal 0.987688 -0.156435 0
    outer loop
      vertex -12.5 0 3
      vertex -11.8882 3.86271 1
      vertex -11.8882 3.86271 3
    endloop
  endfacet
  facet normal 0.987688 -0.156435 0
    outer loop
      vertex -11.8882 3.86271 1
      vertex -12.5 0 3
      vertex -12.5 0 1
    endloop
  endfacet
  facet normal -0.156435 0.987688 0
    outer loop
      vertex 3.86271 -11.8882 1
      vertex 0 -12.5 3
      vertex 3.86271 -11.8882 3
    endloop
  endfacet
  facet normal -0.156435 0.987688 0
    outer loop
      vertex 0 -12.5 3
      vertex 3.86271 -11.8882 1
      vertex 0 -12.5 1
    endloop
  endfacet
  facet normal -0.707107 0.707107 0
    outer loop
      vertex 7.34731 -10.1127 1
      vertex 10.1127 -7.34731 3
      vertex 10.1127 -7.34731 1
    endloop
  endfacet
  facet normal -0.707107 0.707107 0
    outer loop
      vertex 10.1127 -7.34731 3
      vertex 7.34731 -10.1127 1
      vertex 7.34731 -10.1127 3
    endloop
  endfacet
  facet normal 0.707107 0.707107 0
    outer loop
      vertex -7.34731 -10.1127 3
      vertex -10.1127 -7.34731 1
      vertex -10.1127 -7.34731 3
    endloop
  endfacet
  facet normal 0.707107 0.707107 0
    outer loop
      vertex -10.1127 -7.34731 1
      vertex -7.34731 -10.1127 3
      vertex -7.34731 -10.1127 1
    endloop
  endfacet
  facet normal -0.891007 0.45399 0
    outer loop
      vertex 10.1127 -7.34731 1
      vertex 11.8882 -3.86271 3
      vertex 11.8882 -3.86271 1
    endloop
  endfacet
  facet normal -0.891007 0.45399 0
    outer loop
      vertex 11.8882 -3.86271 3
      vertex 10.1127 -7.34731 1
      vertex 10.1127 -7.34731 3
    endloop
  endfacet
  facet normal -0.45399 0.891007 0
    outer loop
      vertex 7.34731 -10.1127 1
      vertex 3.86271 -11.8882 3
      vertex 7.34731 -10.1127 3
    endloop
  endfacet
  facet normal -0.45399 0.891007 0
    outer loop
      vertex 3.86271 -11.8882 3
      vertex 7.34731 -10.1127 1
      vertex 3.86271 -11.8882 1
    endloop
  endfacet
  facet normal 0.45399 0.891007 -0
    outer loop
      vertex -3.86271 -11.8882 1
      vertex -7.34731 -10.1127 3
      vertex -3.86271 -11.8882 3
    endloop
  endfacet
  facet normal 0.45399 0.891007 0
    outer loop
      vertex -7.34731 -10.1127 3
      vertex -3.86271 -11.8882 1
      vertex -7.34731 -10.1127 1
    endloop
  endfacet
  facet normal 0 0 1
    outer loop
      vertex 3.5 0 1
      vertex 12.5 0 1
      vertex 11.8882 3.86271 1
    endloop
  endfacet
  facet normal 0 0 1
    outer loop
      vertex 3.3287 1.08156 1
      vertex 11.8882 3.86271 1
      vertex 10.1127 7.34731 1
    endloop
  endfacet
  facet normal 0 0 1
    outer loop
      vertex 12.5 0 1
      vertex 3.5 0 1
      vertex 11.8882 -3.86271 1
    endloop
  endfacet
  facet normal 0 0 1
    outer loop
      vertex 2.83156 2.05725 1
      vertex 10.1127 7.34731 1
      vertex 7.34731 10.1127 1
    endloop
  endfacet
  facet normal -0 0 1
    outer loop
      vertex 3.3287 -1.08156 1
      vertex 11.8882 -3.86271 1
      vertex 3.5 0 1
    endloop
  endfacet
  facet normal 0 0 1
    outer loop
      vertex 2.05725 2.83156 1
      vertex 7.34731 10.1127 1
      vertex 3.86271 11.8882 1
    endloop
  endfacet
  facet normal 0 0 1
    outer loop
      vertex 11.8882 -3.86271 1
      vertex 3.3287 -1.08156 1
      vertex 10.1127 -7.34731 1
    endloop
  endfacet
  facet normal -0 0 1
    outer loop
      vertex 2.83156 -2.05725 1
      vertex 10.1127 -7.34731 1
      vertex 3.3287 -1.08156 1
    endloop
  endfacet
  facet normal 0 0 1
    outer loop
      vertex 11.8882 3.86271 1
      vertex 3.3287 1.08156 1
      vertex 3.5 0 1
    endloop
  endfacet
  facet normal 0 0 1
    outer loop
      vertex 10.1127 7.34731 1
      vertex 2.83156 2.05725 1
      vertex 3.3287 1.08156 1
    endloop
  endfacet
  facet normal 0 0 1
    outer loop
      vertex 7.34731 10.1127 1
      vertex 2.05725 2.83156 1
      vertex 2.83156 2.05725 1
    endloop
  endfacet
  facet normal 0 0 1
    outer loop
      vertex 3.86271 11.8882 1
      vertex 1.08156 3.3287 1
      vertex 2.05725 2.83156 1
    endloop
  endfacet
  facet normal 0 0 1
    outer loop
      vertex 0 12.5 1
      vertex 1.08156 3.3287 1
      vertex 3.86271 11.8882 1
    endloop
  endfacet
  facet normal 0 0 1
    outer loop
      vertex 0 12.5 1
      vertex 0 3.5 1
      vertex 1.08156 3.3287 1
    endloop
  endfacet
  facet normal 0 0 1
    outer loop
      vertex 0 12.5 1
      vertex -1.08156 3.3287 1
      vertex 0 3.5 1
    endloop
  endfacet
  facet normal -0 0 1
    outer loop
      vertex -3.86271 11.8882 1
      vertex -1.08156 3.3287 1
      vertex 0 12.5 1
    endloop
  endfacet
  facet normal 0 0 1
    outer loop
      vertex -1.08156 3.3287 1
      vertex -3.86271 11.8882 1
      vertex -2.05725 2.83156 1
    endloop
  endfacet
  facet normal -0 0 1
    outer loop
      vertex -7.34731 10.1127 1
      vertex -2.05725 2.83156 1
      vertex -3.86271 11.8882 1
    endloop
  endfacet
  facet normal -0 0 1
    outer loop
      vertex -10.1127 7.34731 1
      vertex -2.83156 2.05725 1
      vertex -7.34731 10.1127 1
    endloop
  endfacet
  facet normal 0 0 1
    outer loop
      vertex -2.05725 2.83156 1
      vertex -7.34731 10.1127 1
      vertex -2.83156 2.05725 1
    endloop
  endfacet
  facet normal 0 0 1
    outer loop
      vertex 10.1127 -7.34731 1
      vertex 2.83156 -2.05725 1
      vertex 7.34731 -10.1127 1
    endloop
  endfacet
  facet normal -0 0 1
    outer loop
      vertex 2.05725 -2.83156 1
      vertex 7.34731 -10.1127 1
      vertex 2.83156 -2.05725 1
    endloop
  endfacet
  facet normal 0 0 1
    outer loop
      vertex 7.34731 -10.1127 1
      vertex 2.05725 -2.83156 1
      vertex 3.86271 -11.8882 1
    endloop
  endfacet
  facet normal -0 0 1
    outer loop
      vertex 1.08156 -3.3287 1
      vertex 3.86271 -11.8882 1
      vertex 2.05725 -2.83156 1
    endloop
  endfacet
  facet normal -0 0 1
    outer loop
      vertex 0 -3.5 1
      vertex 3.86271 -11.8882 1
      vertex 1.08156 -3.3287 1
    endloop
  endfacet
  facet normal 0 0 1
    outer loop
      vertex 0 -3.5 1
      vertex 0 -12.5 1
      vertex 3.86271 -11.8882 1
    endloop
  endfacet
  facet normal 0 0 1
    outer loop
      vertex -1.08156 -3.3287 1
      vertex 0 -12.5 1
      vertex 0 -3.5 1
    endloop
  endfacet
  facet normal 0 0 1
    outer loop
      vertex -3.86271 -11.8882 1
      vertex -1.08156 -3.3287 1
      vertex -2.05725 -2.83156 1
    endloop
  endfacet
  facet normal 0 0 1
    outer loop
      vertex -7.34731 -10.1127 1
      vertex -2.05725 -2.83156 1
      vertex -2.83156 -2.05725 1
    endloop
  endfacet
  facet normal 0 0 1
    outer loop
      vertex -10.1127 -7.34731 1
      vertex -2.83156 -2.05725 1
      vertex -3.3287 -1.08156 1
    endloop
  endfacet
  facet normal 0 0 1
    outer loop
      vertex -1.08156 -3.3287 1
      vertex -3.86271 -11.8882 1
      vertex 0 -12.5 1
    endloop
  endfacet
  facet normal 0 0 1
    outer loop
      vertex -11.8882 -3.86271 1
      vertex -3.3287 -1.08156 1
      vertex -3.5 0 1
    endloop
  endfacet
  facet normal 0 0 1
    outer loop
      vertex -2.83156 2.05725 1
      vertex -10.1127 7.34731 1
      vertex -3.3287 1.08156 1
    endloop
  endfacet
  facet normal -0 0 1
    outer loop
      vertex -11.8882 3.86271 1
      vertex -3.3287 1.08156 1
      vertex -10.1127 7.34731 1
    endloop
  endfacet
  facet normal 0 0 1
    outer loop
      vertex -2.05725 -2.83156 1
      vertex -7.34731 -10.1127 1
      vertex -3.86271 -11.8882 1
    endloop
  endfacet
  facet normal 0 0 1
    outer loop
      vertex -3.3287 1.08156 1
      vertex -11.8882 3.86271 1
      vertex -3.5 0 1
    endloop
  endfacet
  facet normal 0 0 1
    outer loop
      vertex -2.83156 -2.05725 1
      vertex -10.1127 -7.34731 1
      vertex -7.34731 -10.1127 1
    endloop
  endfacet
  facet normal 0 0 1
    outer loop
      vertex -12.5 0 1
      vertex -3.5 0 1
      vertex -11.8882 3.86271 1
    endloop
  endfacet
  facet normal 0 0 1
    outer loop
      vertex -3.3287 -1.08156 1
      vertex -11.8882 -3.86271 1
      vertex -10.1127 -7.34731 1
    endloop
  endfacet
  facet normal 0 0 1
    outer loop
      vertex -3.5 0 1
      vertex -12.5 0 1
      vertex -11.8882 -3.86271 1
    endloop
  endfacet
  facet normal 0.891007 -0.45399 0
    outer loop
      vertex -11.8882 3.86271 3
      vertex -10.1127 7.34731 1
      vertex -10.1127 7.34731 3
    endloop
  endfacet
  facet normal 0.891007 -0.45399 0
    outer loop
      vertex -10.1127 7.34731 1
      vertex -11.8882 3.86271 3
      vertex -11.8882 3.86271 1
    endloop
  endfacet
  facet normal 0.707107 -0.707107 0
    outer loop
      vertex -10.1127 7.34731 3
      vertex -7.34731 10.1127 1
      vertex -7.34731 10.1127 3
    endloop
  endfacet
  facet normal 0.707107 -0.707107 0
    outer loop
      vertex -7.34731 10.1127 1
      vertex -10.1127 7.34731 3
      vertex -10.1127 7.34731 1
    endloop
  endfacet
  facet normal -0.156435 -0.987688 0
    outer loop
      vertex 0 12.5 1
      vertex 3.86271 11.8882 3
      vertex 0 12.5 3
    endloop
  endfacet
  facet normal -0.156435 -0.987688 -0
    outer loop
      vertex 3.86271 11.8882 3
      vertex 0 12.5 1
      vertex 3.86271 11.8882 1
    endloop
  endfacet
  facet normal 0.45399 -0.891007 0
    outer loop
      vertex -7.34731 10.1127 1
      vertex -3.86271 11.8882 3
      vertex -7.34731 10.1127 3
    endloop
  endfacet
  facet normal 0.45399 -0.891007 0
    outer loop
      vertex -3.86271 11.8882 3
      vertex -7.34731 10.1127 1
      vertex -3.86271 11.8882 1
    endloop
  endfacet
  facet normal 0.156435 -0.987688 0
    outer loop
      vertex -3.86271 11.8882 1
      vertex 0 12.5 3
      vertex -3.86271 11.8882 3
    endloop
  endfacet
  facet normal 0.156435 -0.987688 0
    outer loop
      vertex 0 12.5 3
      vertex -3.86271 11.8882 1
      vertex 0 12.5 1
    endloop
  endfacet
  facet normal 0.156435 0.987688 -0
    outer loop
      vertex 0 -12.5 1
      vertex -3.86271 -11.8882 3
      vertex 0 -12.5 3
    endloop
  endfacet
  facet normal 0.156435 0.987688 0
    outer loop
      vertex -3.86271 -11.8882 3
      vertex 0 -12.5 1
      vertex -3.86271 -11.8882 1
    endloop
  endfacet
  facet normal 0.891007 0.45399 0
    outer loop
      vertex -10.1127 -7.34731 3
      vertex -11.8882 -3.86271 1
      vertex -11.8882 -3.86271 3
    endloop
  endfacet
  facet normal 0.891007 0.45399 0
    outer loop
      vertex -11.8882 -3.86271 1
      vertex -10.1127 -7.34731 3
      vertex -10.1127 -7.34731 1
    endloop
  endfacet
  facet normal 0.987688 0.156435 0
    outer loop
      vertex -11.8882 -3.86271 3
      vertex -12.5 0 1
      vertex -12.5 0 3
    endloop
  endfacet
  facet normal 0.987688 0.156435 0
    outer loop
      vertex -12.5 0 1
      vertex -11.8882 -3.86271 3
      vertex -11.8882 -3.86271 1
    endloop
  endfacet
  facet normal -0.45399 -0.891007 0
    outer loop
      vertex 3.86271 11.8882 1
      vertex 7.34731 10.1127 3
      vertex 3.86271 11.8882 3
    endloop
  endfacet
  facet normal -0.45399 -0.891007 -0
    outer loop
      vertex 7.34731 10.1127 3
      vertex 3.86271 11.8882 1
      vertex 7.34731 10.1127 1
    endloop
  endfacet
  facet normal -0.707107 -0.707107 0
    outer loop
      vertex 10.1127 7.34731 1
      vertex 7.34731 10.1127 3
      vertex 7.34731 10.1127 1
    endloop
  endfacet
  facet normal -0.707107 -0.707107 0
    outer loop
      vertex 7.34731 10.1127 3
      vertex 10.1127 7.34731 1
      vertex 10.1127 7.34731 3
    endloop
  endfacet
  facet normal -0.891007 -0.45399 0
    outer loop
      vertex 11.8882 3.86271 1
      vertex 10.1127 7.34731 3
      vertex 10.1127 7.34731 1
    endloop
  endfacet
  facet normal -0.891007 -0.45399 0
    outer loop
      vertex 10.1127 7.34731 3
      vertex 11.8882 3.86271 1
      vertex 11.8882 3.86271 3
    endloop
  endfacet
endsolid OpenSCAD_Model
